<svg width="1280" height="800" viewBox="0 0 1280 800" fill="none" xmlns="http://www.w3.org/2000/svg">
<g opacity="0.5">
<mask id="mask0_948_3066" style="mask-type:luminance" maskUnits="userSpaceOnUse" x="0" y="0" width="1280" height="800">
<path d="M1280 0H0V800H1280V0Z" fill="white"/>
</mask>
<g mask="url(#mask0_948_3066)">
<path d="M793.616 1219.84L284.364 1142.85L283.435 1142.32L-64.347 730.241L-64.7559 729.208L-99.9482 169.947L-99.6613 168.841L198.436 -288.525L199.285 -289.175L691.976 -438.611L693.019 -438.531L1160.87 -212.111L1161.62 -211.331L1395.54 286.791L1392.78 288.341L1159.11 -209.247L692.27 -435.178L200.643 -286.061L-96.8117 170.319L-61.6955 728.378L285.337 1139.57L793.492 1216.39L1231.42 924.936L1403.05 397.944L1405.97 399.086L1234.15 926.644L1233.5 927.522L794.635 1219.61L793.616 1219.84Z" fill="url(#paint0_radial_948_3066)"/>
<path d="M891.11 1183.63L381.858 1179.1L380.885 1178.72L-12.4377 825.501L-12.9761 824.518L-112.344 281.112L-112.191 279.979L125.871 -209.088L126.628 -209.855L590.338 -427.218L591.387 -427.285L1075.8 -273.318L1076.64 -272.652L1362.32 180.187L1362.59 181.284L1332.77 596.673L1392.64 287.215L1395.68 287.92L1330.9 622.754L1323.26 729.22L1320.16 728.957L1325.94 648.345L1290.11 833.593L1289.56 834.562L892.096 1183.25L891.11 1183.63ZM382.435 1175.71L890.584 1180.23L1287.18 832.295L1327.82 622.27L1359.45 181.618L1074.4 -270.224L591.052 -423.857L128.357 -206.963L-109.187 281.043L-10.0403 823.262L382.435 1175.71Z" fill="url(#paint1_radial_948_3066)"/>
<path d="M481.432 1194.93L480.413 1194.69L58.1072 904.872L57.4622 903.975L-101.938 390L-101.926 388.866L69.8965 -118.314L70.5669 -119.192L494.945 -390.897L495.956 -391.111L982.435 -311.864L983.362 -311.317L1310.45 87.1859L1310.84 88.2248L1337.75 620.314L1337.45 621.414L1081.84 1001.55L1320.59 727.916L1322.83 730.264L1067.42 1023.01L1049.7 1049.35L1047.2 1047.34L1050.61 1042.27L977.122 1126.5L976.195 1127.01L481.432 1194.93ZM60.2228 902.314L481.594 1191.49L975.258 1123.71L1065.03 1020.82L1334.62 619.891L1307.77 89.0053L981.424 -308.595L496.04 -387.664L72.6139 -116.567L-98.8197 389.486L60.2228 902.314Z" fill="url(#paint2_radial_948_3066)"/>
<path d="M580.997 1183.57L579.961 1183.48L141.091 966.114L140.339 965.311L-70.8152 494.358L-70.9346 493.233L34.6426 -16.2085L35.2064 -17.1751L409.901 -336.431L410.886 -336.789L882.874 -325.467L883.841 -325.064L1244.04 7.77489L1244.57 8.76377L1329.45 511.417L1329.28 512.542L1105.71 960.855L1104.93 961.614L674.338 1151.81L673.177 1148.66L1103.25 958.695L1326.29 511.439L1241.62 9.97767L882.256 -322.083L411.371 -333.378L37.5505 -14.8696L-67.7828 493.403L142.881 963.269L580.743 1180.13L1048.06 1046.7L1048.84 1049.99L580.997 1183.57Z" fill="url(#paint3_radial_948_3066)"/>
<path d="M673.303 1151.85L234.438 1004.68L233.6 1004L-21.0288 587.383L-21.2803 586.289L20.1242 90.4302L20.5635 89.3913L339.362 -263.825L340.302 -264.323L787.451 -316.4L788.462 -316.136L1163.15 -51.2254L1163.79 -50.317L1298.35 411.583L1298.31 412.713L1138.92 861.027L1138.23 861.889L757.328 1097.37L756.305 1097.57L327.789 1018.32L328.305 1014.97L756.279 1094.12L1136.22 859.23L1295.23 412.044L1161 -48.7031L787.235 -312.956L341.183 -261.006L23.1642 91.3441L-18.1412 585.997L235.878 1001.61L674.214 1148.61L673.303 1151.85Z" fill="url(#paint4_radial_948_3066)"/>
<path d="M824.817 1027.4L421.142 1009.28L420.172 1008.85L122.074 719.039L124.136 716.5L421.82 1005.91L824.388 1023.98L1148.52 757.528L1247.62 323.975L1072.13 -84.7531L696.357 -281.225L287.55 -175.078L31.5168 195.277L45.9701 660.503L329.213 1015.53L326.879 1017.76L43.2704 662.277L42.8844 661.222L28.3955 194.794L28.7079 193.711L285.409 -177.617L286.285 -178.245L696.172 -284.667L697.203 -284.545L1073.96 -87.5559L1074.7 -86.7448L1250.66 323.077L1250.76 324.208L1151.4 758.936L1150.82 759.883L825.81 1027.06L824.817 1027.4Z" fill="url(#paint5_radial_948_3066)"/>
<path d="M508.273 977.583L507.275 977.294L207.105 753.133L206.488 752.211L105.05 374.088L108.035 373.127L209.315 750.669L508.573 974.15L873.881 942.544L1140.14 660.361L1185.55 251.739L981.195 -98.1893L617.899 -229.134L256.657 -80.1171L60.5527 290.158L124.637 717.491L121.574 718.044L57.3984 290.108L57.5889 288.98L254.249 -82.3477L255.044 -83.0866L617.32 -232.523L618.351 -232.545L982.691 -101.223L983.514 -100.525L1188.46 250.425L1188.69 251.544L1143.15 661.366L1142.69 662.383L875.641 945.405L874.686 945.883L508.273 977.583Z" fill="url(#paint6_radial_948_3066)"/>
<path d="M580.914 927.736L579.882 927.578L292.134 762.289L291.43 761.456L165.152 439.939L165.086 438.789L254.102 108.22L257.084 109.178L168.225 439.161L294.064 759.564L580.835 924.289L902.686 852.081L1111.07 569.989V199.878L894.417 -86.7441L555.997 -161.222L246.455 17.0809L107.971 374.27L105.114 372.948L243.814 15.2003L244.517 14.3587L555.037 -164.511L556.068 -164.672L895.568 -89.9552L896.459 -89.3719L1113.82 198.184L1114.18 199.264V570.592L1113.84 571.661L904.754 854.692L903.855 855.284L580.914 927.736Z" fill="url(#paint7_radial_948_3066)"/>
<path d="M639.05 859.757L638.016 859.735L375.108 751.054L374.308 750.301L237.681 487.657L237.498 486.532L283.045 194.449L283.553 193.457L484.355 0.998523L486.402 3.55407L286.014 195.612L240.652 486.507L376.731 748.09L638.603 856.346L908.741 759.362L1065.48 490.94L1030.41 170.635L813.854 -54.9459L510.649 -82.0181L256.475 110.093L254.709 107.301L509.338 -85.157L510.349 -85.457L814.654 -58.2848L815.601 -57.8181L1032.96 168.601L1033.43 169.623L1068.63 491.14L1068.39 492.26L911.063 761.699L910.237 762.396L639.05 859.757Z" fill="url(#paint8_radial_948_3066)"/>
<path d="M677.503 782.805L449.785 717.144L448.911 716.483L316.423 510.438L316.146 509.352L330.638 264.816L331.062 263.758L482.181 89.4131L483.098 88.902L694.249 57.202L694.674 60.5631L484.058 92.1826L333.701 265.649L319.283 508.971L451.128 714.019L677.762 779.371L896.19 671.183L1005.41 432.269L947.702 166.274L745.706 -5.06185L485.429 3.97426L485.33 0.57704L746.166 -8.47852L747.169 -8.12018L950.039 163.958L950.597 164.905L1008.56 432.085L1008.44 433.241L898.719 673.244L897.973 674.027L678.541 782.71L677.503 782.805Z" fill="url(#paint9_radial_948_3066)"/>
<path d="M696.257 701.325L512.013 665.1L511.101 664.528L393.105 512.828L392.737 511.744L390.667 317.019L391.015 315.933L498.659 171.025L499.553 170.433L661.024 134.206L662.052 134.364L804.892 215.872L803.459 218.881L661.108 137.653L500.719 173.636L393.778 317.597L395.835 511.092L513.11 661.867L696.254 697.875L862.964 594.325L935.015 391.678L871.193 182.264L693.636 60.3195L695.284 57.4473L873.313 179.714L873.964 180.611L938.139 391.183L938.108 392.339L865.656 596.119L864.976 596.978L697.298 701.131L696.257 701.325Z" fill="url(#paint10_radial_948_3066)"/>
<path d="M694.249 617.559L557.622 597.184L556.697 596.661L465.612 490.239L465.195 489.161L458.988 351.05L459.303 349.936L533.828 243.514L534.732 242.889L648.583 215.72L649.632 215.873L748.997 272.478L749.724 273.348L789.056 379.761L786.173 381.036L747.057 275.2L648.695 219.164L535.948 246.073L462.115 351.509L468.271 488.375L558.59 593.903L694.102 614.111L815.293 528.736L860.492 375.934L802.737 218.006L805.619 216.748L863.58 375.245L863.618 376.395L818.077 530.359L817.439 531.264L695.303 617.306L694.249 617.559Z" fill="url(#paint11_radial_948_3066)"/>
<path d="M671.404 540.566L582.389 522.452L581.451 521.827L529.698 449.372L529.37 448.238L533.512 359.935L533.944 358.844L585.693 299.974L586.721 299.458L657.109 294.933L658.168 295.299L709.921 340.58L710.485 341.627L720.834 409.552L720.55 410.844L685.357 462.919L682.863 460.899L717.662 409.402L707.519 342.827L656.692 298.36L587.511 302.81L536.58 360.744L532.502 447.777L583.536 519.227L671.397 537.108L753.215 483.413L786.15 379.841L789.081 380.955L755.961 485.113L755.293 486.008L672.489 540.349L671.404 540.566Z" fill="url(#paint12_radial_948_3066)"/>
<path d="M632.602 472.647L631.543 472.417L614.977 461.2L611.721 461.35L610.558 460.853L604.213 453.914L588.069 442.983L587.355 441.828L586.128 434.136L575.365 422.358L577.56 419.958L585.204 428.32L579.073 389.753L579.289 388.556L604.13 345.536L605.232 344.761L650.773 337.967L651.929 338.297L687.121 367.733L687.721 368.931L691.863 418.747L691.515 419.981L662.532 458.472L661.402 459.092L620.503 460.953L632.683 469.203L683.866 460.242L684.353 463.595L632.602 472.647ZM606.154 451.228L615.799 457.761L660.579 455.717L688.716 418.353L684.696 369.972L650.555 341.42L606.372 348.011L582.235 389.808L589.019 432.489L606.154 451.228ZM590.291 440.492L594.626 443.428L589.946 438.306L590.291 440.492Z" fill="url(#paint13_radial_948_3066)"/>
<path d="M618.281 522.416L617.189 522.308L540.592 481.552L539.83 480.655L506.71 390.088L506.689 388.888L537.737 293.791L540.663 294.933L509.811 389.422L542.489 478.783L618.016 518.974L691.418 496.672L732.155 429.841L719.949 356.427L671.197 314.21L612.389 318.652L575.964 362.913L578.016 421.091L574.91 421.216L572.838 362.352L573.237 361.149L610.499 315.866L611.545 315.308L671.583 310.777L672.655 311.141L722.339 354.16L722.903 355.188L735.324 429.91L735.088 431.155L693.684 499.083L692.805 499.774L618.281 522.416Z" fill="url(#paint14_radial_948_3066)"/>
<path d="M591.186 597.182L590.162 596.966L478.376 524.507L477.692 523.585L434.221 380.938L434.241 379.799L483.925 234.894L484.633 233.999L612.979 157.019L614.47 159.999L486.63 236.677L437.345 380.43L480.453 521.907L591.267 593.73L714.36 573.535L792.285 474.852L794.337 351.566L724.674 259.688L624.377 239.544L540.006 295.81L538.391 292.91L623.267 236.305L624.354 236.082L725.791 256.46L726.708 257.049L797.096 349.885L797.451 350.999L795.381 475.527L795.003 476.605L716.336 576.23L715.391 576.802L591.186 597.182Z" fill="url(#paint15_radial_948_3066)"/>
<path d="M587.109 680.941L586.052 680.755L426.652 583.396L425.971 582.546L357.659 394.608L357.623 393.452L417.659 194.205L418.309 193.294L583.919 80.0853L584.917 79.8408L785.717 104.746L785.369 108.119L585.107 83.2797L420.432 195.849L360.752 393.93L428.65 580.73L587.071 677.488L755.728 641.494L864.727 499.785V322.144L764.01 189.507L613.45 160.18L613.996 156.838L765.118 186.271L766.037 186.857L867.472 320.444L867.833 321.533V500.405L867.469 501.496L757.753 644.138L756.861 644.716L587.109 680.941Z" fill="url(#paint16_radial_948_3066)"/>
<path d="M601.707 762.426L600.671 762.334L391.589 660.448L390.83 659.651L287.323 430.967L287.203 429.828L341.027 176.239L341.59 175.284L534.114 12.2617L535.102 11.9033L785.583 18.695L786.573 19.12L977.027 202.523L974.972 205.07L784.945 22.0728L535.576 15.3144L343.927 177.601L290.355 430.006L393.364 657.598L601.433 758.987L815.655 695.909L941.293 502.178L926.876 272.442L784.42 107.603L786.672 105.264L929.514 270.548L929.936 271.601L944.427 502.548L944.145 503.651L817.867 698.373L817.001 699.028L601.707 762.426Z" fill="url(#paint17_radial_948_3066)"/>
<path d="M636.003 841.644L377.237 746.547L376.422 745.855L225.3 487.736L225.069 486.608L260.264 178.672L260.729 177.661L469.811 -41.9614L470.768 -42.4336L762.654 -67.3447L763.657 -67.0503L1010 118.619L1010.62 119.555L1093.42 438.808L1090.43 439.73L1007.78 121.069L762.347 -63.9086L471.563 -39.0947L263.279 179.691L228.221 486.422L378.746 743.522L636.46 838.233L887.977 732.247L1017.85 481.977L974.466 204.08L977.532 203.508L1021 482.005L1020.82 483.127L890.403 734.452L889.613 735.2L637.054 841.622L636.003 841.644Z" fill="url(#paint18_radial_948_3066)"/>
<path d="M692.074 909.625L381.555 839.433L380.661 838.836L177.786 562.6L177.443 561.527L179.513 203.786L179.869 202.713L391.023 -75.7865L391.914 -76.3726L721.067 -148.828L722.111 -148.656L1022.28 27.9524L1022.97 28.7802L1157.52 375.208L1157.58 376.352L1058.22 743.155L1055.24 742.191L1154.45 375.977L1020.32 30.6607L721.128 -145.375L393.065 -73.1587L182.617 204.411L180.552 560.944L382.731 836.23L692.161 906.177L968.575 748.238L1090.5 438.6L1093.35 439.938L971.208 750.136L970.505 750.969L693.111 909.466L692.074 909.625Z" fill="url(#paint19_radial_948_3066)"/>
<path d="M848.673 997.536L846.621 994.992L1140.17 712.364L1202.09 296.945L1014.25 -66.5471L661.293 -215.544L306.284 -86.8665L106.078 254.008L149.423 649.05L407.404 926.697L764.42 960.561L1055.85 741.275L1057.61 744.075L765.722 963.703L764.712 963.995L406.578 930.028L405.621 929.547L146.855 651.053L146.406 650.047L102.929 253.811L103.165 252.686L303.97 -89.2082L304.785 -89.9026L660.846 -218.961L661.895 -218.933L1015.89 -69.4943L1016.68 -68.7415L1205.06 295.795L1205.24 296.897L1143.14 713.511L1142.64 714.511L848.673 997.536Z" fill="url(#paint20_radial_948_3066)"/>
<path d="M518.756 1086.24L518.241 1082.89L937.939 1006.01L1218.74 660.489L1235.26 202.07L985.436 -161.503L584.91 -269.894L215.351 -77.9609L41.9412 321.717L136.905 748.472L454.817 1010.39L847.59 994.567L847.706 997.964L454.381 1013.81L453.388 1013.47L134.589 750.82L134.017 749.87L38.792 321.936L38.8961 320.803L212.783 -79.9637L213.52 -80.7692L584.077 -273.225L585.118 -273.336L986.721 -164.655L987.59 -164.025L1238.08 200.511L1238.39 201.597L1221.82 661.231L1221.43 662.292L939.894 1008.71L938.993 1009.26L518.756 1086.24Z" fill="url(#paint21_radial_948_3066)"/>
<path d="M599.679 1140.53L598.64 1140.48L176.334 950.288L177.518 947.146L599.316 1137.11L1032.99 994.81L1284.92 588.252L1245.69 100.391L935.936 -247.432L496.101 -303.898L128.548 -44.1704L-7.7342 407.524L147.125 847.921L519.278 1083.09L517.721 1086.04L145.096 850.563L144.426 849.702L-10.8326 408.18L-10.8555 407.038L125.767 -45.801L126.402 -46.6982L494.889 -307.082L495.91 -307.34L936.847 -250.734L937.779 -250.234L1248.3 98.4518L1248.73 99.4879L1288.06 588.557L1287.8 589.657L1035.24 997.216L1034.41 997.891L599.679 1140.53Z" fill="url(#paint22_radial_948_3066)"/>
<path d="M689.918 1176.78L228.278 1040.92L227.419 1040.28L-54.1172 614.608L-51.5978 612.616L229.614 1037.8L690.19 1173.34L1123.91 961L1336.64 497.919L1235.44 -5.81962L867.821 -322.061L401.07 -315.283L45.8574 9.98594L-40.8804 506.919L178.287 947.908L175.562 949.53L-43.8696 508.005L-44.0321 506.877L42.9139 8.75538L43.4396 7.77204L399.501 -318.275L400.478 -318.672L868.331 -325.467L869.314 -325.106L1237.79 -8.11405L1238.35 -7.14184L1339.79 497.777L1339.66 498.903L1126.43 963.064L1125.68 963.852L690.952 1176.69L689.918 1176.78Z" fill="url(#paint23_radial_948_3066)"/>
<path d="M789.479 1190.41L298.86 1117.95L297.941 1117.44L-43.6336 723.464L-44.0552 722.423L-51.4761 613.703L-54.4044 613.514L-53.104 589.864L-81.3174 176.753L-78.219 176.5L-51.7174 564.592L-25.424 85.9531L-25.0228 84.9059L302.055 -306.8L302.98 -307.333L785.319 -384.313L786.342 -384.091L1204.51 -110.122L1205.17 -109.244L1372.85 395.67L1372.85 396.806L1211.38 903.989L1210.74 904.878L790.505 1190.17L789.479 1190.41ZM299.815 1114.66L789.342 1186.96L1208.64 902.306L1369.74 396.264L1202.44 -107.519L785.22 -380.869L303.978 -304.061L-22.3587 86.7559L-49.9955 589.836L-40.9999 721.567L299.815 1114.66Z" fill="url(#paint24_radial_948_3066)"/>
<path d="M889.052 1179.1H383.94L382.962 1178.72L-12.4312 827.77L-12.9747 826.792L-114.412 281.117L-114.27 279.995L-30.4274 103.083L-78.5035 177.606L-81.0381 175.65L-19.908 80.8834L119.653 -213.606L122.411 -212.039L-6.7245 60.45L206.71 -270.406L207.556 -271.061L689.895 -420.5L690.931 -420.422L1152.57 -203.058L1153.34 -202.283L1385.19 286.786L1385.33 287.914L1283.89 826.797L1283.36 827.767L890.032 1178.72L889.052 1179.1ZM384.491 1175.7H888.501L1280.97 825.517L1382.18 287.814L1150.84 -200.186L690.213 -417.069L208.933 -267.956L-17.2489 82.65L-111.26 281.025L-10.0439 825.517L384.491 1175.7Z" fill="url(#paint25_radial_948_3066)"/>
<path d="M479.369 1217.58L478.353 1217.34L39.4882 922.998L38.8329 922.106L-128.85 392.281L-128.845 391.148L45.0475 -136.411L45.7104 -137.288L253.108 -273.608L121.652 -211.263L120.418 -214.38L273.334 -286.905L486.645 -427.111L488.242 -424.202L294.985 -297.175L588.263 -436.272L589.301 -436.35L1081.99 -284.652L1082.84 -283.991L1376.8 175.648L1377.08 176.745L1339.82 733.734L1339.4 734.775L987.478 1144.6L986.551 1145.12L479.369 1217.58ZM41.5859 920.42L479.511 1214.13L985.599 1141.83L1336.76 732.889L1373.94 177.103L1080.62 -281.541L588.994 -432.913L274.759 -283.88L47.7802 -134.688L-125.733 391.739L41.5859 920.42Z" fill="url(#paint26_radial_948_3066)"/>
<path d="M578.935 1233.38L577.899 1233.29L110.051 1004.61L109.297 1003.82L-120.491 503.425L-120.618 502.297L-10.8988 -43.372L-10.3528 -44.3332L389.18 -393.022L390.17 -393.394L704.377 -389.216L487.222 -423.975L487.669 -427.336L727.76 -388.905L901.495 -386.6L901.454 -383.203L750.904 -385.205L996.923 -345.828L997.843 -345.297L1345.62 69.0529L1346.03 70.1001L1377.08 629.361L1376.8 630.458L1076.63 1087.82L1075.77 1088.47L578.935 1233.38ZM111.824 1001.76L578.666 1229.95L1074.43 1085.35L1373.95 628.967L1342.96 70.9057L995.928 -342.55L727.516 -385.511L390.686 -389.991L-7.98325 -42.0526L-117.469 502.445L111.824 1001.76Z" fill="url(#paint27_radial_948_3066)"/>
<path d="M679.525 1226.57L195.114 1068.08L194.273 1067.41L-91.4054 610.044L-91.667 608.944L-48.1927 58.7385L-47.766 57.7052L302.083 -338.531L303.023 -339.039L801.925 -402.437L802.931 -402.187L1119.92 -182.942L900.478 -383.595L902.466 -386.203L1139.8 -169.198L1225.24 -110.1L1223.59 -107.228L1157.84 -152.7L1293.72 -28.4587L1294.25 -27.4754L1391.55 520.461L1391.39 521.583L1151.25 1010.65L1150.49 1011.42L680.567 1226.52L679.525 1226.57ZM196.531 1065L679.881 1223.15L1148.78 1008.52L1388.4 520.511L1291.3 -26.2393L1137.96 -166.445L801.74 -398.992L303.932 -335.737L-45.1451 59.6301L-88.5254 608.63L196.531 1065Z" fill="url(#paint28_radial_948_3066)"/>
<path d="M777.019 1194.92L288.465 1108.89L287.553 1108.34L-41.5945 705.316L-41.9831 704.261L-64.7539 167.641L-64.4517 166.555L227.434 -263.642L228.292 -264.275L700.282 -397.861L701.321 -397.759L1144.33 -173.603L1145.07 -172.8L1335.54 258.136L1222.94 -108.125L1225.88 -109.203L1346.3 282.48L1356.23 304.944L1353.63 306.316L1385.28 409.294L1385.27 410.43L1209.31 919.88L1208.63 920.75L778.045 1194.71L777.019 1194.92ZM289.506 1105.63L776.965 1191.48L1206.6 918.119L1382.17 409.803L1343.42 283.761L1142.52 -170.781L700.521 -394.422L229.6 -261.139L-61.6276 168.091L-38.9101 703.505L289.506 1105.63Z" fill="url(#paint29_radial_948_3066)"/>
<path d="M864.17 1140.61L385.973 1127.02L384.998 1126.61L24.7946 786.984L24.2815 785.995L-58.5273 276.548L-58.3572 275.429L169.358 -175.149L170.143 -175.908L606.941 -366.099L607.979 -366.146L1053.06 -214.444L1053.89 -213.755L1308.52 209.653L1308.76 210.754L1263.22 713.409L1260.13 713.073L1305.62 211.017L1051.6 -211.38L607.578 -362.724L171.807 -172.977L-55.3731 276.542L27.2428 784.803L386.605 1123.64L863.703 1137.2L1243.73 818.678L1353.32 305.298L1356.34 306.067L1246.63 820.042L1246.06 821.006L865.155 1140.26L864.17 1140.61Z" fill="url(#paint30_radial_948_3066)"/>
<path d="M483.471 1122.49L482.45 1122.21L103.615 848.244L102.993 847.344L-33.6367 378.655L-33.5986 377.508L132.014 -77.6003L132.697 -78.4503L521.883 -316.189L522.909 -316.381L957.634 -232.606L958.541 -232.042L1244.22 130.228L1244.6 131.289L1257.02 609.036L1256.69 610.125L993.789 983.716L991.331 981.641L1253.89 608.53L1241.51 131.991L956.547 -229.367L522.914 -312.934L134.693 -75.7836L-30.5078 378.203L105.784 845.739L483.702 1119.04L935.956 1067.09L1260.58 712.039L1262.77 714.439L937.761 1069.92L936.827 1070.41L483.471 1122.49Z" fill="url(#paint31_radial_948_3066)"/>
<path d="M574.754 1093.01L573.713 1092.89L190.741 889.108L190.007 888.288L14.0479 469.416L13.959 468.283L117.461 24.4993L118.038 23.5576L451.328 -248.148L452.334 -248.479L864.29 -225.837L865.248 -225.406L1167.49 71.2048L1167.99 72.1993L1232.16 509.194L1231.97 510.316L1029.1 890.702L1028.3 891.438L657.743 1043.14L656.659 1039.96L1026.69 888.469L1229 509.13L1165.01 73.327L863.587 -222.476L452.735 -245.056L120.331 25.9215L17.1006 468.541L192.6 886.321L574.576 1089.57L992.201 981.024L992.923 984.332L574.754 1093.01Z" fill="url(#paint32_radial_948_3066)"/>
<path d="M656.701 1043.16L282.006 905.042L281.188 904.34L74.1788 544.329L73.9502 543.215L121.562 124.337L122.034 123.312L399.431 -164.238L400.371 -164.699L775.065 -198.666L776.076 -198.366L1084.52 34.8479L1085.14 35.7757L1186.58 425.217L1186.51 426.351L1043.67 793.154L1042.96 793.99L722.093 977.392L721.056 977.551L371.205 898.301L371.835 894.976L721.145 974.104L1041.03 791.265L1183.43 425.573L1082.3 37.2951L774.766 -195.227L401.168 -161.36L124.574 125.359L77.1019 543.034L283.522 902.015L657.694 1039.94L656.701 1043.16Z" fill="url(#paint33_radial_948_3066)"/>
<path d="M770.926 898.333L454.194 868.899L453.25 868.43L229.674 632.95L231.827 630.505L455.005 865.566L770.631 894.894L1032.62 696.338L1123.4 355.597L995.484 23.8802L700.434 -145.381L368.234 -73.1587L151.571 217.977V597.161L372.726 895.569L370.316 897.705L148.813 598.83L148.465 597.763V217.375L148.813 216.302L366.174 -75.7781L367.078 -76.3726L700.368 -148.828L701.392 -148.664L997.42 21.1524L998.128 21.9941L1126.48 354.833L1126.54 355.969L1035.45 697.863L1034.85 698.783L771.944 898.033L770.926 898.333Z" fill="url(#paint34_radial_948_3066)"/>
<path d="M524.755 821.355L523.765 821.002L310.546 642.127L309.974 641.158L252.009 360.399L255.038 359.646L312.882 639.808L525.215 817.938L797.367 808.919L1005.61 610.463L1053.04 305.994L910.749 33.0797L638.525 -81.9564L358.043 19.5492L195.097 297.03L232.293 631.524L229.212 631.93L191.95 296.83L192.186 295.708L355.727 17.2075L356.542 16.5131L638.078 -85.373L639.127 -85.3453L912.385 30.127L913.174 30.8686L1056.02 304.838L1056.2 305.966L1008.58 611.633L1008.07 612.63L798.985 811.883L798.012 812.299L524.755 821.355Z" fill="url(#paint35_radial_948_3066)"/>
<path d="M580.819 757.942L579.777 757.701L391.397 628.64L390.749 627.751L320.367 403.598L320.382 402.442L394.909 187.342L397.817 188.548L323.49 403.073L393.51 626.081L580.946 754.495L803.419 720.695L962.061 535.917L976.486 279.015L834.294 64.8951L597.299 -4.9799L368.527 107.731L254.911 360.77L252.128 359.276L365.987 105.687L366.741 104.884L596.527 -8.32713L597.57 -8.41602L835.633 61.7729L836.481 62.4173L979.323 277.515L979.617 278.617L965.126 536.737L964.707 537.795L805.309 723.459L804.392 723.976L580.819 757.942Z" fill="url(#paint36_radial_948_3066)"/>
<path d="M616.139 683.197L615.07 683.042L461.879 594.742L461.181 593.911L394.938 426.358L394.872 425.214L440.414 253.136L441.069 252.175L573.554 159.342L575.228 162.206L443.233 254.695L398.011 425.572L463.814 592.014L616.01 679.745L788.805 636.997L901.978 479.456L897.861 274.625L772.312 114.794L574.682 78.775L397.132 189.422L395.593 186.469L573.62 75.5223L574.649 75.3223L773.381 111.547L774.301 112.119L900.579 272.875L900.957 273.945L905.097 479.989L904.767 481.078L790.908 639.57L790.031 640.178L616.139 683.197Z" fill="url(#paint37_radial_948_3066)"/>
<path d="M632.731 601.678L631.68 601.558L519.893 542.691L519.162 541.872L469.478 424.13L469.392 422.958L500.439 302.955L501.082 302L592.17 236.339L593.214 236.069L694.651 249.655L694.27 253.028L593.399 239.519L503.273 304.486L472.533 423.278L521.745 539.897L632.526 598.23L755.637 564.572L833.635 445.575L823.367 292.83L722.717 178.255L574.24 162.464L574.537 159.086L723.588 174.936L724.556 175.447L825.993 290.919L826.425 291.975L836.774 445.941L836.49 447.053L757.826 567.053L756.94 567.717L632.731 601.678Z" fill="url(#paint38_radial_948_3066)"/>
<path d="M626.382 520.196L625.334 519.966L561.158 476.943L560.48 475.974L539.779 398.993L539.883 397.752L570.939 329.827L571.805 328.988L629.765 306.346L630.827 306.352L686.718 328.993L687.599 329.902L710.375 386.507L707.533 387.877L685.024 331.927L630.281 309.754L573.435 331.954L542.931 398.677L563.292 474.388L626.474 516.743L706.073 503.349L761.209 431.877L759.165 331.263L693.316 252.485L695.609 250.193L761.852 329.441L762.258 330.549L764.328 432.443L763.962 433.574L708.071 506.027L707.119 506.61L626.382 520.196Z" fill="url(#paint39_radial_948_3066)"/>
<path d="M624.509 474.867L623.64 471.606L643.241 465.356L600.752 447.653L599.874 446.739L581.245 399.189L581.258 397.82L599.886 352.534L600.811 351.62L644.285 335.775L645.504 335.884L684.836 358.525L685.59 359.511L699.909 408.739L707.5 386.6L710.408 387.798L691.775 442.139L690.962 443.087L680.232 448.423L675.104 458.234L674.192 459.023L624.509 474.867ZM675.401 450.817L651.401 462.75L672.722 455.95L675.401 450.817ZM602.469 444.734L644.722 462.337L678.03 445.781L696.912 409.642L682.822 361.203L644.641 339.223L602.436 354.606L584.366 398.534L602.469 444.734ZM697.898 414.6L682.863 443.375L689.093 440.281L697.898 414.6Z" fill="url(#paint40_radial_948_3066)"/>
<path d="M659.095 536.053L568.009 524.731L567.052 524.211L500.807 447.228L503.067 444.9L568.924 521.428L658.877 532.608L728.294 481.245L748.7 394.189L714.059 320.636L646.874 293.914L585.883 320.6L559.489 380.553L575.704 442.645L624.814 471.739L623.334 474.731L573.65 445.295L572.901 444.267L556.342 380.864L556.433 379.661L583.346 318.531L584.169 317.692L646.275 290.52L647.379 290.503L715.692 317.672L716.54 318.489L751.732 393.206L751.857 394.406L731.156 482.711L730.524 483.7L660.139 535.77L659.095 536.053Z" fill="url(#paint41_radial_948_3066)"/>
<path d="M663.151 617.553L526.521 592.647L525.607 592.086L430.381 472.083L430.001 470.992L427.931 305.706L431.037 305.658L433.099 470.328L527.588 589.394L663.105 614.103L778.061 540.011L821.155 407.583L778.082 281.956L675.575 219.169L566.96 243.825L499.374 333.433L503.491 445.997L500.385 446.133L496.246 332.919L496.604 331.769L564.916 241.203L565.797 240.622L675.514 215.714L676.586 215.894L780.093 279.294L780.789 280.178L824.261 406.972L824.268 408.139L780.799 541.731L780.124 542.625L664.195 617.342L663.151 617.553Z" fill="url(#paint42_radial_948_3066)"/>
<path d="M690.15 694.55L501.767 671.908L500.814 671.391L366.257 517.425L365.83 516.372L351.339 299.011L351.616 297.908L469.614 114.511L472.159 116.466L354.478 299.366L368.886 515.516L502.671 668.597L689.94 691.105L842.199 583.086L895.684 398.583L831.931 225.38L683.872 139.911L527.641 173.639L430.696 306.741L428.271 304.622L525.566 171.033L526.475 170.427L683.809 136.461L684.837 136.625L833.881 222.666L834.597 223.536L898.773 397.88L898.811 399.025L844.99 584.688L844.355 585.605L691.164 694.28L690.15 694.55Z" fill="url(#paint43_radial_948_3066)"/>
<path d="M735.82 764.75L499.826 757.958L498.845 757.539L316.674 583.194L316.168 582.217L272.699 315.036L272.882 313.892L399.155 73.8861L399.95 73.1416L640.087 -26.4834L641.189 -23.3084L401.57 76.1055L275.856 315.05L319.13 581.033L500.468 754.58L735.348 761.339L918.713 605.853L968.151 367.03L869.281 150.758L673.639 56.1555L471.302 117.125L470.474 113.853L673.344 52.7222L674.388 52.8027L871.051 147.9L871.808 148.692L971.175 366.053L971.302 367.189L921.621 607.197L921.057 608.164L736.816 764.392L735.82 764.75Z" fill="url(#paint44_radial_948_3066)"/>
<path d="M516.552 843.992L515.537 843.689L279.544 662.556L278.937 661.625L200.271 355.956L200.342 354.82L318.343 55.9421L319.054 55.1088L588.169 -96.5884L589.205 -96.7412L889.375 -26.5551L888.73 -23.2301L589.101 -93.2912L320.971 57.8504L203.412 355.612L281.779 660.123L516.862 840.559L799.361 815.748L997.294 608.281L1030.28 312.867L888.037 67.0949L640.144 -23.2801L641.129 -26.5051L889.545 64.0643L890.366 64.7671L1033.2 311.562L1033.43 312.675L1000.31 609.292L999.841 610.314L801.109 818.62L800.161 819.087L516.552 843.992Z" fill="url(#paint45_radial_948_3066)"/>
<path d="M556.061 925.475L555.029 925.303L265.208 755.489L264.51 754.642L136.165 415.011L136.111 413.875L233.407 58.3945L234.019 57.4778L517.625 -153.089L518.648 -153.375L866.433 -117.15L867.372 -116.669L1117.86 152.769L1115.68 155.189L865.587 -113.825L518.91 -149.939L236.223 59.9472L139.24 414.275L267.164 752.786L556.007 922.028L873.724 854.328L1080.02 585.817L1082.09 240.614L887.845 -23.8278L890.262 -25.9583L1084.85 238.956L1085.2 240.031L1083.13 586.45L1082.76 587.533L875.751 856.975L874.859 857.55L556.061 925.475Z" fill="url(#paint46_radial_948_3066)"/>
<path d="M614.207 997.878L613.156 997.844L269.514 850.672L268.732 849.93L84.4903 494.447L84.3125 493.319L148.488 85.7637L148.996 84.772L436.742 -189.197L437.712 -189.614L822.756 -203.2L823.749 -202.85L1132.2 55.2665L1132.76 56.2248L1223.85 475.1L1220.83 475.889L1129.87 57.5998L822.301 -199.786L438.362 -186.242L151.454 86.9359L87.4642 493.303L271.162 847.728L613.768 994.461L960.498 870.305L1154.49 540.75L1115.22 154.166L1118.31 153.794L1157.64 540.975L1157.4 542.08L962.809 872.653L961.989 873.344L614.207 997.878Z" fill="url(#paint47_radial_948_3066)"/>
<path d="M687.876 1052.25L294.551 945.835L293.677 945.199L51.4751 587.452L51.1729 586.366L69.8014 135.791L70.1875 134.741L345.514 -204.89L346.434 -205.44L760.458 -277.896L761.484 -277.687L1125.83 -44.4733L1126.5 -43.6066L1277.62 391.121L1277.64 392.266L1141.01 836.049L1138.07 834.963L1274.52 391.757L1123.79 -41.84L760.4 -274.448L347.473 -202.182L72.8744 136.543L54.2941 585.916L295.841 942.688L688.09 1048.81L1049.36 865.918L1220.94 474.76L1223.74 476.229L1051.92 867.941L1051.17 868.746L688.897 1052.14L687.876 1052.25Z" fill="url(#paint48_radial_948_3066)"/>
<path d="M869.342 1106.25L867.358 1103.64L1220.93 782.511L1307.66 294.627L1094.95 -141.301L681.949 -331.025L254.484 -193.248L2.56053 206.516L39.7288 685.324L343.269 1030.88L774.83 1087.34L1138.71 834.074L1140.37 836.938L776.026 1090.53L775.008 1090.78L342.35 1034.17L341.418 1033.67L37.1104 687.247L36.6812 686.213L-0.581055 206.199L-0.311848 205.091L252.239 -195.673L253.08 -196.339L681.601 -334.456L682.639 -334.392L1096.66 -144.198L1097.43 -143.434L1310.66 293.561L1310.81 294.688L1223.87 783.755L1223.33 784.736L869.342 1106.25Z" fill="url(#paint49_radial_948_3066)"/>
<path d="M489.728 1170.02L489.304 1166.66L966.958 1094.29L1291.21 710.262L1322.19 190.699L1047.51 -233.988L591.077 -369.518L161.497 -161.699L-51.2213 292.332L47.9101 791.535L409.322 1107.77L868.339 1103.25L868.365 1106.64L408.796 1111.17L407.814 1110.8L45.5406 793.812L44.9946 792.846L-54.373 292.457L-54.241 291.321L158.983 -163.782L159.737 -164.563L590.323 -372.871L591.359 -372.957L1048.86 -237.104L1049.72 -236.446L1325.05 189.229L1325.33 190.318L1294.27 711.082L1293.87 712.123L968.857 1097.04L967.93 1097.57L489.728 1170.02Z" fill="url(#paint50_radial_948_3066)"/>
<path d="M583.087 1210.73L582.048 1210.65L488.824 1165.9L490.32 1166.89L488.712 1169.8L466.973 1155.41L124.55 991.028L125.802 987.92L446.556 1141.9L74.6883 895.831L74.0305 894.948L-89.5098 394.556V393.414L74.0305 -109.235L74.6858 -110.113L492.852 -388.613L493.871 -388.844L980.349 -316.388L981.274 -315.863L1318.7 80.3701L1319.11 81.4201L1350.17 620.301L1349.89 621.387L1064.21 1065.17L1063.36 1065.83L583.087 1210.73ZM468.405 1152.39L582.792 1207.3L1061.99 1062.71L1347.04 619.92L1316.05 82.2396L979.382 -313.108L493.992 -385.402L76.7709 -107.527L-86.4012 393.984L76.7683 893.237L468.405 1152.39Z" fill="url(#paint51_radial_948_3066)"/>
<path d="M681.607 1228.84L193.053 1072.61L192.212 1071.95L88.8751 908.867L126.556 988.695L123.798 990.253L75.1735 887.247L-97.6036 614.583L-95.0512 612.645L64.1412 863.875L-105.99 503.445L-106.132 502.308L-0.552154 -36.5721L-0.00104489 -37.5415L393.322 -381.697L394.305 -382.069L897.345 -377.544L898.318 -377.158L1289.57 -26.2082L1290.11 -25.2304L1389.48 518.178L1389.33 519.311L1151.26 1010.64L1150.5 1011.41L682.65 1228.78L681.607 1228.84ZM194.452 1069.52L681.944 1225.41L1148.77 1008.52L1386.32 518.253L1287.18 -23.9638L896.771 -374.15L394.828 -378.667L2.37101 -35.2665L-102.975 502.425L77.8402 885.495L194.452 1069.52Z" fill="url(#paint52_radial_948_3066)"/>
<path d="M783.245 1222.1L276.06 1138.33L275.141 1137.79L-70.5709 721.173L-70.9671 720.123L-83.6325 455.875L-94.7766 613.748L-97.875 613.484L-84.8921 429.6L-97.875 158.603L-94.7766 158.423L-83.0382 403.37L-58.5455 56.4922L-58.1239 55.456L293.8 -349.836L294.732 -350.352L803.984 -420.544L805 -420.3L1239.73 -123.691L1240.38 -122.8L1405.98 409.287L1405.97 410.423L1227.94 935.723L1227.27 936.598L784.266 1221.88L783.245 1222.1ZM277.071 1135.06L783.164 1218.65L1225.22 933.978L1402.87 409.812L1237.61 -121.13L803.824 -417.102L295.669 -347.066L-55.4953 57.3533L-81.781 429.639L-67.8991 719.337L277.071 1135.06Z" fill="url(#paint53_radial_948_3066)"/>
<path d="M882.806 1192.69L369.417 1181.36L368.444 1180.95L-20.7419 818.683L-21.26 817.708L-116.485 269.771L-116.323 268.644L34.3159 -34.3563L-95.0733 159.51L-97.5825 157.508L45.5439 -56.9397L127.951 -222.69L130.677 -221.067L59.3978 -77.7008L204.655 -295.337L205.516 -295.981L702.346 -438.623L703.377 -438.529L1171.23 -207.579L1171.98 -206.781L1399.69 295.871L1399.82 296.999L1285.96 844.935L1285.41 845.891L883.802 1192.32L882.806 1192.69ZM370.034 1177.98L882.313 1189.28L1283.05 843.602L1396.67 296.841L1169.45 -204.729L702.605 -435.184L206.837 -292.845L48.175 -55.1174L-113.334 269.733L-18.3114 816.485L370.034 1177.98Z" fill="url(#paint54_radial_948_3066)"/>
<path d="M468.986 1201.73L467.97 1201.47L45.6642 902.594L45.0343 901.703L-112.294 380.933L-112.269 379.791L67.8305 -134.184L68.5086 -135.048L392.036 -337.253L129.9 -220.306L128.724 -223.45L412.547 -350.075L503.236 -406.753L504.778 -403.809L434.416 -359.831L600.714 -434.023L601.751 -434.078L1088.23 -273.317L1089.07 -272.636L1372.68 189.261L1372.94 190.361L1327.39 742.825L1326.96 743.858L972.966 1140.09L972.026 1140.6L468.986 1201.73ZM47.8102 900.066L469.194 1198.29L971.132 1137.28L1324.36 741.916L1369.8 190.655L1086.8 -270.239L601.38 -430.653L413.908 -347.011L70.5302 -132.403L-109.173 380.439L47.8102 900.066Z" fill="url(#paint55_radial_948_3066)"/>
<path d="M570.625 1197.16L569.588 1197.05L126.579 968.363L125.842 967.566L-87.3767 485.291L-87.4834 484.155L26.3731 -32.084L26.942 -33.0395L414.051 -354.556L415.036 -354.901L843.925 -340.809L503.752 -403.606L504.265 -406.959L866.622 -340.065L897.378 -339.053L897.286 -335.656L889.012 -335.928L994.886 -316.387L995.788 -315.84L1327.01 91.7188L1327.4 92.7827L1346.03 633.927L1345.72 635.01L1049.7 1067.47L1048.83 1068.1L570.625 1197.16ZM128.402 965.546L570.419 1193.72L1047.54 1064.95L1342.91 633.458L1324.32 93.5216L993.832 -313.134L866.315 -336.676L415.493 -351.484L29.2582 -30.6979L-84.3393 484.363L128.402 965.546Z" fill="url(#paint56_radial_948_3066)"/>
<path d="M665.003 1172.23L215.784 1013.73L214.958 1013.05L-41.7351 582.846L-41.9814 581.737L7.70237 72.2874L8.15951 71.2597L339.377 -286.482L340.314 -286.963L799.883 -336.776L800.899 -336.501L1183.87 -58.0014L1182.15 -55.1737L799.639 -333.34L341.168 -283.64L10.7347 73.2541L-38.8322 581.496L217.257 1010.68L665.429 1168.81L1107.41 979.057L1340.79 525.004L1260.24 9.95688L896.312 -336.071L898.351 -338.635L1262.69 7.79021L1263.21 8.78744L1343.94 525.026L1343.76 526.146L1109.84 981.248L1109.05 981.996L666.047 1172.19L665.003 1172.23Z" fill="url(#paint57_radial_948_3066)"/>
<path d="M752.148 1122.47L311.208 1034.16L310.314 1033.59L20.4932 664.533L20.1148 663.469L9.76562 178.925L10.0932 177.847L279.208 -202.539L280.092 -203.156L706.54 -309.572L707.566 -309.444L1096.75 -101.136L1097.48 -100.311L1275.51 327.619L1272.69 329.025L1094.88 -98.35L706.693 -306.128L281.321 -199.981L12.8844 179.447L23.2107 662.781L312.308 1030.93L752.161 1119.02L1146.59 881.856L1315.92 421.078L1181.53 -56.0917L1184.49 -57.0889L1319.05 420.656L1319.01 421.789L1149.26 883.686L1148.57 884.539L753.174 1122.29L752.148 1122.47Z" fill="url(#paint58_radial_948_3066)"/>
<path d="M824.794 1056.83L406.63 1031.92L405.673 1031.49L95.1534 725.824L94.6556 724.813L32.5527 278.763L32.7508 277.647L241.833 -109.531L242.633 -110.262L623.537 -264.228L624.576 -264.242L1005.48 -121.598L1006.3 -120.884L1215.38 250.449L1215.61 251.555L1165.92 679.486L1162.84 679.061L1212.45 251.722L1003.95 -118.581L624.096 -260.831L244.228 -107.284L35.707 278.855L97.6422 723.702L407.341 1028.57L824.405 1053.41L1165.09 780.155L1272.59 327.897L1275.6 328.749L1167.96 781.591L1167.37 782.533L825.797 1056.5L824.794 1056.83Z" fill="url(#paint59_radial_948_3066)"/>
<path d="M493.774 1007.01L492.765 1006.71L180.176 766.706L179.572 765.778L76.0645 367.275L76.133 366.142L225.184 -11.9773L225.896 -12.8162L555.049 -198.48L556.077 -198.633L914.208 -117.122L915.094 -116.533L1144.88 191.398L1145.23 192.481L1143.16 586.45L1142.8 587.525L917.162 886.4L914.767 884.237L1140.06 585.825L1142.12 193.073L913.04 -113.919L555.986 -195.186L227.813 -10.0745L79.2035 366.931L182.409 764.273L494.096 1003.58L880.105 971.975L1163.31 678.042L1165.45 680.506L881.842 974.856L880.887 975.32L493.774 1007.01Z" fill="url(#paint60_radial_948_3066)"/>
<path d="M572.626 961.705L571.594 961.539L267.282 784.93L266.579 784.089L134.091 439.928L134.035 438.789L229.258 85.5721L229.868 84.6527L503.125 -121.389L504.143 -121.681L831.226 -89.9807L832.166 -89.514L1064.02 155.022L1064.48 156.044L1101.75 502.467L1101.51 503.58L931.765 793.4L930.937 794.103L636.974 898.255L636.014 895.019L929.448 791.058L1098.6 502.264L1061.46 157.047L830.406 -86.6501L504.43 -118.247L232.082 87.1082L137.169 439.169L269.23 782.211L572.565 958.253L915.663 883.65L916.265 886.986L572.626 961.705Z" fill="url(#paint61_radial_948_3066)"/>
<path d="M635.935 898.222L352.329 778.222L351.541 777.477L202.492 492.189L202.31 491.061L251.993 174.075L252.501 173.077L471.937 -35.2309L472.913 -35.6476L758.589 -44.7031L759.579 -44.3531L981.083 141.308L981.652 142.277L1043.75 436.625L1043.64 437.761L923.564 702.675L922.817 703.464L682.685 823.466L681.642 823.561L431.155 751.105L431.95 747.825L681.898 820.122L921.024 700.625L1040.61 436.797L978.751 143.639L758.129 -41.2865L473.558 -32.2698L254.957 175.244L205.461 491.033L353.959 775.266L637.052 895.052L635.935 898.222Z" fill="url(#paint62_radial_948_3066)"/>
<path d="M430.296 750.459L281.248 524.039L280.958 522.947L295.449 248.978L295.863 247.922L461.471 53.2028L462.39 52.6778L700.455 16.4473L701.496 16.6862L900.229 152.539L900.869 153.422L975.394 388.903L975.383 390.056L896.717 618.742L896.046 619.611L707.665 739.611L706.639 739.822L497.557 703.595L496.628 703.033L360.001 530.95L362.345 528.722L498.604 700.339L706.581 736.375L894.002 616.978L972.275 389.436L898.116 155.103L700.328 19.8945L463.368 55.9556L298.512 249.783L284.087 522.545L432.816 748.472L430.296 750.459Z" fill="url(#paint63_radial_948_3066)"/>
<path d="M710.881 656.058L547.346 640.208L546.383 639.719L434.596 517.453L434.149 516.411L419.658 348.861L422.749 348.544L437.189 515.48L548.181 636.883L710.604 652.625L850.447 549.155L897.758 364.68L825.751 184.661L661.141 94.6416L475.914 141.911L356.527 310.769L362.723 529.78L359.617 529.892L353.405 310.267L353.728 309.175L473.794 139.355L474.673 138.742L660.984 91.1943L662.033 91.3304L827.643 181.897L828.369 182.736L900.821 363.875L900.897 365.011L853.283 550.675L852.659 551.619L711.889 655.778L710.881 656.058Z" fill="url(#paint64_radial_948_3066)"/>
<path d="M696.396 576.81L580.467 565.49L579.52 565.018L500.853 481.243L500.388 480.16L492.109 366.949L492.396 365.821L550.356 277.518L552.883 279.501L495.253 367.296L503.436 479.254L581.292 562.16L696.094 573.374L792.462 497.124L823.233 364.732L765.765 234.521L642.588 173.896L504.977 216.576L422.489 349.654L419.921 347.751L502.725 214.163L503.586 213.479L642.285 170.457L643.347 170.543L767.553 231.676L768.317 232.488L826.278 363.813L826.382 364.968L795.332 498.557L794.74 499.515L697.445 576.499L696.396 576.81Z" fill="url(#paint65_radial_948_3066)"/>
<path d="M660.972 506.58L592.659 488.469L591.712 487.725L556.52 426.589L556.296 425.452L564.576 359.791L565.2 358.65L610.742 322.425L611.831 322.111L665.657 328.902L665.299 332.272L612.075 325.558L567.562 360.969L559.448 425.302L594.003 485.333L661.116 503.122L724.253 465.258L750.77 384.933L722.193 300.097L642.516 255.408L551.996 280.161L551.242 276.864L642.33 251.958L643.415 252.094L724.149 297.375L724.898 298.297L753.881 384.339L753.886 385.502L726.973 467.016L726.257 467.93L662.082 506.422L660.972 506.58Z" fill="url(#paint66_radial_948_3066)"/>
<path d="M652.836 456.8L609.364 450.005L608.293 449.267L583.452 408.511L583.229 407.192L593.578 357.38L594.314 356.289L633.646 331.383L634.82 331.205L671.503 341.675L664.26 331.636L666.695 329.533L676.486 343.097L682.434 344.792L683.404 345.619L694.789 368.444L697.75 372.553L698.073 373.822L697.956 374.8L708.244 395.43L708.376 396.703L693.885 453.308L690.896 452.394L705.217 396.455L697.273 380.525L691.861 425.905L691.226 427.061L653.964 456.497L652.836 456.8ZM610.492 446.753L652.653 453.339L688.864 424.736L694.746 375.458L692.186 370.325L674.693 346.094L634.652 334.669L596.458 358.855L586.406 407.23L610.492 446.753ZM679.678 347.519L683.343 352.597L680.999 347.894L679.678 347.519Z" fill="url(#paint67_radial_948_3066)"/>
<path d="M612.037 558.651L611.267 555.362L708.011 528.348L761.174 445.598L753.004 349.506L691.745 286.965L614.246 282.509L557.21 333.751L547.036 409.417L583.612 467.206L642.462 482.745L691.607 451.387L693.172 454.323L643.491 486.023L642.343 486.203L582.31 470.353L581.398 469.67L544.136 410.801L543.874 409.587L554.226 332.603L554.774 331.54L612.738 279.465L613.807 279.084L692.473 283.609L693.451 284.062L755.554 347.462L756.039 348.545L764.318 445.906L764.044 447.045L710.223 530.815L709.337 531.481L612.037 558.651Z" fill="url(#paint68_radial_948_3066)"/>
<path d="M599.559 637.92L598.528 637.773L459.833 560.786L461.24 557.759L599.442 634.473L743.257 600.761L829.519 477.209L825.41 328.995L737.156 221.245L612.001 203.292L509.458 272.828L474.609 393.895L517.629 503.689L612.349 555.489L610.957 558.525L515.731 506.448L514.997 505.6L471.528 394.656L471.475 393.472L506.665 271.206L507.328 270.272L610.832 200.086L611.856 199.845L738.134 217.956L739.086 218.509L828.102 327.189L828.501 328.273L832.643 477.711L832.323 478.795L745.377 603.325L744.47 603.956L599.559 637.92Z" fill="url(#paint69_radial_948_3066)"/>
<path d="M607.939 721.664L606.9 721.589L420.587 633.286L419.822 632.503L324.592 428.725L327.36 427.175L422.337 630.414L607.629 718.231L797.001 659.695L904.025 488.614L889.62 286.05L762.057 144.281L589.277 124.036L447.373 227.509L400.084 398.42L461.968 558.611L459.109 559.934L397.006 399.175L396.947 398.02L444.559 225.942L445.186 225.023L588.023 120.87L589.049 120.595L762.941 140.97L763.881 141.47L892.229 284.111L892.673 285.17L907.165 488.95L906.895 490.042L799.246 662.125L798.39 662.798L607.939 721.664Z" fill="url(#paint70_radial_948_3066)"/>
<path d="M636.005 800.893L397.943 714.851L397.12 714.148L260.49 478.67L260.262 477.554L291.312 194.529L294.393 194.937L263.411 477.359L399.447 711.815L636.46 797.476L865.204 702.809L982.652 475.187L943.505 222.793L770.464 60.562L545.928 53.8037L374.982 200.229L327.49 428.323L324.457 427.57L372.074 198.887L372.633 197.926L544.455 50.7537L545.453 50.3926L771.096 57.1815L772.066 57.5898L945.953 220.612L946.474 221.618L985.808 475.209L985.626 476.326L867.629 705.015L866.832 705.773L637.044 800.87L636.005 800.893Z" fill="url(#paint71_radial_948_3066)"/>
<path d="M685.851 873.395L396.035 805.47L395.148 804.868L208.837 549.012L208.497 547.94L210.569 212.837L210.933 211.759L409.665 -46.3604L412.042 -44.177L213.67 213.476L211.608 547.365L397.234 802.276L685.962 869.945L943.74 725.593L1057.16 439.154L980.865 145.967L756.131 -27.6742L486.049 -2.86868L293.922 195.967L291.786 193.504L484.309 -5.74368L485.251 -6.20757L756.436 -31.1131L757.46 -30.8048L983.1 143.54L983.702 144.459L1060.3 438.804L1060.23 439.945L946.369 727.501L945.653 728.34L686.887 873.245L685.851 873.395Z" fill="url(#paint72_radial_948_3066)"/>
<path d="M752.279 930.027L416.919 896.066L415.974 895.585L171.7 632.935L171.243 631.907L133.98 256.052L134.227 254.941L326.745 -66.5789L327.575 -67.2678L665.005 -185.004L665.95 -181.771L329.043 -64.215L137.13 256.291L174.27 630.943L417.76 892.741L752.017 926.588L1026.43 725.746L1123.4 382.743L999.619 55.5655L719.055 -109.146L411.151 -43.6039L410.557 -46.9372L719.004 -112.598L720.038 -112.426L1001.57 52.8628L1002.27 53.71L1126.48 382.016L1126.53 383.166L1029.24 727.327L1028.61 728.238L753.285 929.752L752.279 930.027Z" fill="url(#paint73_radial_948_3066)"/>
<path d="M456.435 982.114L455.447 981.761L155.277 728.17L154.713 727.22L65.6973 317.398L65.8166 316.25L237.636 -64.1357L238.378 -64.9246L592.374 -243.797L593.405 -243.902L976.379 -137.48L975.617 -134.191L593.177 -240.463L240.176 -62.094L68.849 317.206L157.608 725.848L456.905 978.703L830.497 967.414L1111.19 703.292L1175.18 308.248L997.682 -39.3801L664.91 -181.805L666.045 -184.966L999.335 -42.319L1000.12 -41.569L1178.15 307.12L1178.33 308.242L1114.15 704.478L1113.64 705.47L832.1 970.381L831.13 970.792L456.435 982.114Z" fill="url(#paint74_radial_948_3066)"/>
<path d="M516.664 1056.82L515.645 1056.6L157.512 827.919L156.839 827.039L11.9297 399.103L11.917 397.961L148.547 -36.7667L149.189 -37.65L507.32 -284.45L508.344 -284.697L932.717 -225.828L933.644 -225.317L1231.74 116.581L1229.5 118.928L931.78 -222.533L508.506 -281.25L151.307 -35.0945L15.0357 398.492L159.559 825.292L516.735 1053.36L921.39 985.622L1191.84 655.944L1212.49 217.897L974.746 -134.831L977.248 -136.842L1215.31 216.369L1215.61 217.461L1194.91 656.719L1194.52 657.767L923.328 988.342L922.408 988.889L516.664 1056.82Z" fill="url(#paint75_radial_948_3066)"/>
<path d="M591.385 1117.9L590.346 1117.83L182.529 927.636L181.764 926.861L-25.2478 494.4L-25.3926 493.275L63.6182 13.2613L64.1516 12.289L414.006 -302.436L414.983 -302.822L870.412 -305.086L871.397 -304.711L1227.46 10.014L1228 10.9918L1321.16 504.586L1318.12 505.275L1225.08 12.2751L869.873 -301.689L415.55 -299.43L66.5515 14.5307L-22.2408 493.358L184.256 924.75L591.052 1114.47L1014.37 981.217L1262.16 590.5L1229.07 117.886L1232.17 117.622L1265.3 590.842L1265.02 591.942L1016.61 983.647L1015.76 984.311L591.385 1117.9Z" fill="url(#paint76_radial_948_3066)"/>
</g>
</g>
<defs>
<radialGradient id="paint0_radial_948_3066" cx="0" cy="0" r="1" gradientUnits="userSpaceOnUse" gradientTransform="translate(632.543 395.322) scale(748.361 818.52)">
<stop offset="0.2312" stop-color="#FAFAFA"/>
<stop offset="0.5045" stop-color="#F4F4F4"/>
<stop offset="0.8767" stop-color="#E2E2E2"/>
<stop offset="1" stop-color="#DBDBDB"/>
</radialGradient>
<radialGradient id="paint1_radial_948_3066" cx="0" cy="0" r="1" gradientUnits="userSpaceOnUse" gradientTransform="translate(632.543 395.322) scale(748.364 818.524)">
<stop offset="0.2312" stop-color="#FAFAFA"/>
<stop offset="0.5045" stop-color="#F4F4F4"/>
<stop offset="0.8767" stop-color="#E2E2E2"/>
<stop offset="1" stop-color="#DBDBDB"/>
</radialGradient>
<radialGradient id="paint2_radial_948_3066" cx="0" cy="0" r="1" gradientUnits="userSpaceOnUse" gradientTransform="translate(632.544 395.321) scale(748.358 818.517)">
<stop offset="0.2312" stop-color="#FAFAFA"/>
<stop offset="0.5045" stop-color="#F4F4F4"/>
<stop offset="0.8767" stop-color="#E2E2E2"/>
<stop offset="1" stop-color="#DBDBDB"/>
</radialGradient>
<radialGradient id="paint3_radial_948_3066" cx="0" cy="0" r="1" gradientUnits="userSpaceOnUse" gradientTransform="translate(632.542 395.322) scale(748.361 818.52)">
<stop offset="0.2312" stop-color="#FAFAFA"/>
<stop offset="0.5045" stop-color="#F4F4F4"/>
<stop offset="0.8767" stop-color="#E2E2E2"/>
<stop offset="1" stop-color="#DBDBDB"/>
</radialGradient>
<radialGradient id="paint4_radial_948_3066" cx="0" cy="0" r="1" gradientUnits="userSpaceOnUse" gradientTransform="translate(632.544 395.322) scale(748.364 818.523)">
<stop offset="0.2312" stop-color="#FAFAFA"/>
<stop offset="0.5045" stop-color="#F4F4F4"/>
<stop offset="0.8767" stop-color="#E2E2E2"/>
<stop offset="1" stop-color="#DBDBDB"/>
</radialGradient>
<radialGradient id="paint5_radial_948_3066" cx="0" cy="0" r="1" gradientUnits="userSpaceOnUse" gradientTransform="translate(632.544 395.321) scale(748.363 818.523)">
<stop offset="0.2312" stop-color="#FAFAFA"/>
<stop offset="0.5045" stop-color="#F4F4F4"/>
<stop offset="0.8767" stop-color="#E2E2E2"/>
<stop offset="1" stop-color="#DBDBDB"/>
</radialGradient>
<radialGradient id="paint6_radial_948_3066" cx="0" cy="0" r="1" gradientUnits="userSpaceOnUse" gradientTransform="translate(632.543 395.321) scale(748.361 818.52)">
<stop offset="0.2312" stop-color="#FAFAFA"/>
<stop offset="0.5045" stop-color="#F4F4F4"/>
<stop offset="0.8767" stop-color="#E2E2E2"/>
<stop offset="1" stop-color="#DBDBDB"/>
</radialGradient>
<radialGradient id="paint7_radial_948_3066" cx="0" cy="0" r="1" gradientUnits="userSpaceOnUse" gradientTransform="translate(632.544 395.322) scale(748.363 818.522)">
<stop offset="0.2312" stop-color="#FAFAFA"/>
<stop offset="0.5045" stop-color="#F4F4F4"/>
<stop offset="0.8767" stop-color="#E2E2E2"/>
<stop offset="1" stop-color="#DBDBDB"/>
</radialGradient>
<radialGradient id="paint8_radial_948_3066" cx="0" cy="0" r="1" gradientUnits="userSpaceOnUse" gradientTransform="translate(632.544 395.32) scale(748.36 818.519)">
<stop offset="0.2312" stop-color="#FAFAFA"/>
<stop offset="0.5045" stop-color="#F4F4F4"/>
<stop offset="0.8767" stop-color="#E2E2E2"/>
<stop offset="1" stop-color="#DBDBDB"/>
</radialGradient>
<radialGradient id="paint9_radial_948_3066" cx="0" cy="0" r="1" gradientUnits="userSpaceOnUse" gradientTransform="translate(632.544 395.321) scale(748.361 818.52)">
<stop offset="0.2312" stop-color="#FAFAFA"/>
<stop offset="0.5045" stop-color="#F4F4F4"/>
<stop offset="0.8767" stop-color="#E2E2E2"/>
<stop offset="1" stop-color="#DBDBDB"/>
</radialGradient>
<radialGradient id="paint10_radial_948_3066" cx="0" cy="0" r="1" gradientUnits="userSpaceOnUse" gradientTransform="translate(632.542 395.322) scale(748.363 818.522)">
<stop offset="0.2312" stop-color="#FAFAFA"/>
<stop offset="0.5045" stop-color="#F4F4F4"/>
<stop offset="0.8767" stop-color="#E2E2E2"/>
<stop offset="1" stop-color="#DBDBDB"/>
</radialGradient>
<radialGradient id="paint11_radial_948_3066" cx="0" cy="0" r="1" gradientUnits="userSpaceOnUse" gradientTransform="translate(632.544 395.322) scale(748.362 818.521)">
<stop offset="0.2312" stop-color="#FAFAFA"/>
<stop offset="0.5045" stop-color="#F4F4F4"/>
<stop offset="0.8767" stop-color="#E2E2E2"/>
<stop offset="1" stop-color="#DBDBDB"/>
</radialGradient>
<radialGradient id="paint12_radial_948_3066" cx="0" cy="0" r="1" gradientUnits="userSpaceOnUse" gradientTransform="translate(632.543 395.321) scale(748.361 818.52)">
<stop offset="0.2312" stop-color="#FAFAFA"/>
<stop offset="0.5045" stop-color="#F4F4F4"/>
<stop offset="0.8767" stop-color="#E2E2E2"/>
<stop offset="1" stop-color="#DBDBDB"/>
</radialGradient>
<radialGradient id="paint13_radial_948_3066" cx="0" cy="0" r="1" gradientUnits="userSpaceOnUse" gradientTransform="translate(632.544 395.322) scale(748.363 818.522)">
<stop offset="0.2312" stop-color="#FAFAFA"/>
<stop offset="0.5045" stop-color="#F4F4F4"/>
<stop offset="0.8767" stop-color="#E2E2E2"/>
<stop offset="1" stop-color="#DBDBDB"/>
</radialGradient>
<radialGradient id="paint14_radial_948_3066" cx="0" cy="0" r="1" gradientUnits="userSpaceOnUse" gradientTransform="translate(632.544 395.321) scale(748.362 818.521)">
<stop offset="0.2312" stop-color="#FAFAFA"/>
<stop offset="0.5045" stop-color="#F4F4F4"/>
<stop offset="0.8767" stop-color="#E2E2E2"/>
<stop offset="1" stop-color="#DBDBDB"/>
</radialGradient>
<radialGradient id="paint15_radial_948_3066" cx="0" cy="0" r="1" gradientUnits="userSpaceOnUse" gradientTransform="translate(632.542 395.321) scale(748.362 818.521)">
<stop offset="0.2312" stop-color="#FAFAFA"/>
<stop offset="0.5045" stop-color="#F4F4F4"/>
<stop offset="0.8767" stop-color="#E2E2E2"/>
<stop offset="1" stop-color="#DBDBDB"/>
</radialGradient>
<radialGradient id="paint16_radial_948_3066" cx="0" cy="0" r="1" gradientUnits="userSpaceOnUse" gradientTransform="translate(632.542 395.321) scale(748.362 818.521)">
<stop offset="0.2312" stop-color="#FAFAFA"/>
<stop offset="0.5045" stop-color="#F4F4F4"/>
<stop offset="0.8767" stop-color="#E2E2E2"/>
<stop offset="1" stop-color="#DBDBDB"/>
</radialGradient>
<radialGradient id="paint17_radial_948_3066" cx="0" cy="0" r="1" gradientUnits="userSpaceOnUse" gradientTransform="translate(632.115 395.322) scale(748.841 819.045)">
<stop offset="0.2312" stop-color="#FAFAFA"/>
<stop offset="0.5045" stop-color="#F4F4F4"/>
<stop offset="0.8767" stop-color="#E2E2E2"/>
<stop offset="1" stop-color="#DBDBDB"/>
</radialGradient>
<radialGradient id="paint18_radial_948_3066" cx="0" cy="0" r="1" gradientUnits="userSpaceOnUse" gradientTransform="translate(632.544 395.321) scale(748.363 818.522)">
<stop offset="0.2312" stop-color="#FAFAFA"/>
<stop offset="0.5045" stop-color="#F4F4F4"/>
<stop offset="0.8767" stop-color="#E2E2E2"/>
<stop offset="1" stop-color="#DBDBDB"/>
</radialGradient>
<radialGradient id="paint19_radial_948_3066" cx="0" cy="0" r="1" gradientUnits="userSpaceOnUse" gradientTransform="translate(632.543 395.322) scale(748.36 818.519)">
<stop offset="0.2312" stop-color="#FAFAFA"/>
<stop offset="0.5045" stop-color="#F4F4F4"/>
<stop offset="0.8767" stop-color="#E2E2E2"/>
<stop offset="1" stop-color="#DBDBDB"/>
</radialGradient>
<radialGradient id="paint20_radial_948_3066" cx="0" cy="0" r="1" gradientUnits="userSpaceOnUse" gradientTransform="translate(632.543 395.322) scale(748.364 818.523)">
<stop offset="0.2312" stop-color="#FAFAFA"/>
<stop offset="0.5045" stop-color="#F4F4F4"/>
<stop offset="0.8767" stop-color="#E2E2E2"/>
<stop offset="1" stop-color="#DBDBDB"/>
</radialGradient>
<radialGradient id="paint21_radial_948_3066" cx="0" cy="0" r="1" gradientUnits="userSpaceOnUse" gradientTransform="translate(632.543 395.322) scale(748.363 818.522)">
<stop offset="0.2312" stop-color="#FAFAFA"/>
<stop offset="0.5045" stop-color="#F4F4F4"/>
<stop offset="0.8767" stop-color="#E2E2E2"/>
<stop offset="1" stop-color="#DBDBDB"/>
</radialGradient>
<radialGradient id="paint22_radial_948_3066" cx="0" cy="0" r="1" gradientUnits="userSpaceOnUse" gradientTransform="translate(632.544 395.322) scale(748.364 818.523)">
<stop offset="0.2312" stop-color="#FAFAFA"/>
<stop offset="0.5045" stop-color="#F4F4F4"/>
<stop offset="0.8767" stop-color="#E2E2E2"/>
<stop offset="1" stop-color="#DBDBDB"/>
</radialGradient>
<radialGradient id="paint23_radial_948_3066" cx="0" cy="0" r="1" gradientUnits="userSpaceOnUse" gradientTransform="translate(632.542 395.321) scale(748.36 818.518)">
<stop offset="0.2312" stop-color="#FAFAFA"/>
<stop offset="0.5045" stop-color="#F4F4F4"/>
<stop offset="0.8767" stop-color="#E2E2E2"/>
<stop offset="1" stop-color="#DBDBDB"/>
</radialGradient>
<radialGradient id="paint24_radial_948_3066" cx="0" cy="0" r="1" gradientUnits="userSpaceOnUse" gradientTransform="translate(632.542 395.322) scale(748.359 818.517)">
<stop offset="0.2312" stop-color="#FAFAFA"/>
<stop offset="0.5045" stop-color="#F4F4F4"/>
<stop offset="0.8767" stop-color="#E2E2E2"/>
<stop offset="1" stop-color="#DBDBDB"/>
</radialGradient>
<radialGradient id="paint25_radial_948_3066" cx="0" cy="0" r="1" gradientUnits="userSpaceOnUse" gradientTransform="translate(632.542 395.322) scale(748.359 818.517)">
<stop offset="0.2312" stop-color="#FAFAFA"/>
<stop offset="0.5045" stop-color="#F4F4F4"/>
<stop offset="0.8767" stop-color="#E2E2E2"/>
<stop offset="1" stop-color="#DBDBDB"/>
</radialGradient>
<radialGradient id="paint26_radial_948_3066" cx="0" cy="0" r="1" gradientUnits="userSpaceOnUse" gradientTransform="translate(632.543 395.322) scale(748.167 818.308)">
<stop offset="0.2312" stop-color="#FAFAFA"/>
<stop offset="0.5045" stop-color="#F4F4F4"/>
<stop offset="0.8767" stop-color="#E2E2E2"/>
<stop offset="1" stop-color="#DBDBDB"/>
</radialGradient>
<radialGradient id="paint27_radial_948_3066" cx="0" cy="0" r="1" gradientUnits="userSpaceOnUse" gradientTransform="translate(632.543 395.321) scale(748.362 818.521)">
<stop offset="0.2312" stop-color="#FAFAFA"/>
<stop offset="0.5045" stop-color="#F4F4F4"/>
<stop offset="0.8767" stop-color="#E2E2E2"/>
<stop offset="1" stop-color="#DBDBDB"/>
</radialGradient>
<radialGradient id="paint28_radial_948_3066" cx="0" cy="0" r="1" gradientUnits="userSpaceOnUse" gradientTransform="translate(632.542 395.322) scale(748.361 818.52)">
<stop offset="0.2312" stop-color="#FAFAFA"/>
<stop offset="0.5045" stop-color="#F4F4F4"/>
<stop offset="0.8767" stop-color="#E2E2E2"/>
<stop offset="1" stop-color="#DBDBDB"/>
</radialGradient>
<radialGradient id="paint29_radial_948_3066" cx="0" cy="0" r="1" gradientUnits="userSpaceOnUse" gradientTransform="translate(632.545 395.322) scale(748.363 818.522)">
<stop offset="0.2312" stop-color="#FAFAFA"/>
<stop offset="0.5045" stop-color="#F4F4F4"/>
<stop offset="0.8767" stop-color="#E2E2E2"/>
<stop offset="1" stop-color="#DBDBDB"/>
</radialGradient>
<radialGradient id="paint30_radial_948_3066" cx="0" cy="0" r="1" gradientUnits="userSpaceOnUse" gradientTransform="translate(632.544 395.322) scale(748.364 818.524)">
<stop offset="0.2312" stop-color="#FAFAFA"/>
<stop offset="0.5045" stop-color="#F4F4F4"/>
<stop offset="0.8767" stop-color="#E2E2E2"/>
<stop offset="1" stop-color="#DBDBDB"/>
</radialGradient>
<radialGradient id="paint31_radial_948_3066" cx="0" cy="0" r="1" gradientUnits="userSpaceOnUse" gradientTransform="translate(632.544 395.322) scale(748.362 818.521)">
<stop offset="0.2312" stop-color="#FAFAFA"/>
<stop offset="0.5045" stop-color="#F4F4F4"/>
<stop offset="0.8767" stop-color="#E2E2E2"/>
<stop offset="1" stop-color="#DBDBDB"/>
</radialGradient>
<radialGradient id="paint32_radial_948_3066" cx="0" cy="0" r="1" gradientUnits="userSpaceOnUse" gradientTransform="translate(632.546 395.321) scale(748.359 818.517)">
<stop offset="0.2312" stop-color="#FAFAFA"/>
<stop offset="0.5045" stop-color="#F4F4F4"/>
<stop offset="0.8767" stop-color="#E2E2E2"/>
<stop offset="1" stop-color="#DBDBDB"/>
</radialGradient>
<radialGradient id="paint33_radial_948_3066" cx="0" cy="0" r="1" gradientUnits="userSpaceOnUse" gradientTransform="translate(632.542 395.323) scale(748.363 818.522)">
<stop offset="0.2312" stop-color="#FAFAFA"/>
<stop offset="0.5045" stop-color="#F4F4F4"/>
<stop offset="0.8767" stop-color="#E2E2E2"/>
<stop offset="1" stop-color="#DBDBDB"/>
</radialGradient>
<radialGradient id="paint34_radial_948_3066" cx="0" cy="0" r="1" gradientUnits="userSpaceOnUse" gradientTransform="translate(632.545 395.321) scale(748.361 818.52)">
<stop offset="0.2312" stop-color="#FAFAFA"/>
<stop offset="0.5045" stop-color="#F4F4F4"/>
<stop offset="0.8767" stop-color="#E2E2E2"/>
<stop offset="1" stop-color="#DBDBDB"/>
</radialGradient>
<radialGradient id="paint35_radial_948_3066" cx="0" cy="0" r="1" gradientUnits="userSpaceOnUse" gradientTransform="translate(632.545 395.321) scale(748.36 818.518)">
<stop offset="0.2312" stop-color="#FAFAFA"/>
<stop offset="0.5045" stop-color="#F4F4F4"/>
<stop offset="0.8767" stop-color="#E2E2E2"/>
<stop offset="1" stop-color="#DBDBDB"/>
</radialGradient>
<radialGradient id="paint36_radial_948_3066" cx="0" cy="0" r="1" gradientUnits="userSpaceOnUse" gradientTransform="translate(632.543 395.323) scale(748.362 818.521)">
<stop offset="0.2312" stop-color="#FAFAFA"/>
<stop offset="0.5045" stop-color="#F4F4F4"/>
<stop offset="0.8767" stop-color="#E2E2E2"/>
<stop offset="1" stop-color="#DBDBDB"/>
</radialGradient>
<radialGradient id="paint37_radial_948_3066" cx="0" cy="0" r="1" gradientUnits="userSpaceOnUse" gradientTransform="translate(632.544 395.322) scale(748.361 818.52)">
<stop offset="0.2312" stop-color="#FAFAFA"/>
<stop offset="0.5045" stop-color="#F4F4F4"/>
<stop offset="0.8767" stop-color="#E2E2E2"/>
<stop offset="1" stop-color="#DBDBDB"/>
</radialGradient>
<radialGradient id="paint38_radial_948_3066" cx="0" cy="0" r="1" gradientUnits="userSpaceOnUse" gradientTransform="translate(632.542 395.321) scale(748.362 818.521)">
<stop offset="0.2312" stop-color="#FAFAFA"/>
<stop offset="0.5045" stop-color="#F4F4F4"/>
<stop offset="0.8767" stop-color="#E2E2E2"/>
<stop offset="1" stop-color="#DBDBDB"/>
</radialGradient>
<radialGradient id="paint39_radial_948_3066" cx="0" cy="0" r="1" gradientUnits="userSpaceOnUse" gradientTransform="translate(632.545 395.321) scale(748.362 818.52)">
<stop offset="0.2312" stop-color="#FAFAFA"/>
<stop offset="0.5045" stop-color="#F4F4F4"/>
<stop offset="0.8767" stop-color="#E2E2E2"/>
<stop offset="1" stop-color="#DBDBDB"/>
</radialGradient>
<radialGradient id="paint40_radial_948_3066" cx="0" cy="0" r="1" gradientUnits="userSpaceOnUse" gradientTransform="translate(632.542 395.322) scale(748.362 818.521)">
<stop offset="0.2312" stop-color="#FAFAFA"/>
<stop offset="0.5045" stop-color="#F4F4F4"/>
<stop offset="0.8767" stop-color="#E2E2E2"/>
<stop offset="1" stop-color="#DBDBDB"/>
</radialGradient>
<radialGradient id="paint41_radial_948_3066" cx="0" cy="0" r="1" gradientUnits="userSpaceOnUse" gradientTransform="translate(632.543 395.322) scale(748.362 818.521)">
<stop offset="0.2312" stop-color="#FAFAFA"/>
<stop offset="0.5045" stop-color="#F4F4F4"/>
<stop offset="0.8767" stop-color="#E2E2E2"/>
<stop offset="1" stop-color="#DBDBDB"/>
</radialGradient>
<radialGradient id="paint42_radial_948_3066" cx="0" cy="0" r="1" gradientUnits="userSpaceOnUse" gradientTransform="translate(632.543 395.322) scale(748.362 818.521)">
<stop offset="0.2312" stop-color="#FAFAFA"/>
<stop offset="0.5045" stop-color="#F4F4F4"/>
<stop offset="0.8767" stop-color="#E2E2E2"/>
<stop offset="1" stop-color="#DBDBDB"/>
</radialGradient>
<radialGradient id="paint43_radial_948_3066" cx="0" cy="0" r="1" gradientUnits="userSpaceOnUse" gradientTransform="translate(632.543 395.321) scale(748.363 818.522)">
<stop offset="0.2312" stop-color="#FAFAFA"/>
<stop offset="0.5045" stop-color="#F4F4F4"/>
<stop offset="0.8767" stop-color="#E2E2E2"/>
<stop offset="1" stop-color="#DBDBDB"/>
</radialGradient>
<radialGradient id="paint44_radial_948_3066" cx="0" cy="0" r="1" gradientUnits="userSpaceOnUse" gradientTransform="translate(632.545 395.322) scale(748.361 818.52)">
<stop offset="0.2312" stop-color="#FAFAFA"/>
<stop offset="0.5045" stop-color="#F4F4F4"/>
<stop offset="0.8767" stop-color="#E2E2E2"/>
<stop offset="1" stop-color="#DBDBDB"/>
</radialGradient>
<radialGradient id="paint45_radial_948_3066" cx="0" cy="0" r="1" gradientUnits="userSpaceOnUse" gradientTransform="translate(632.543 395.322) scale(748.361 818.52)">
<stop offset="0.2312" stop-color="#FAFAFA"/>
<stop offset="0.5045" stop-color="#F4F4F4"/>
<stop offset="0.8767" stop-color="#E2E2E2"/>
<stop offset="1" stop-color="#DBDBDB"/>
</radialGradient>
<radialGradient id="paint46_radial_948_3066" cx="0" cy="0" r="1" gradientUnits="userSpaceOnUse" gradientTransform="translate(632.544 395.321) scale(748.361 818.52)">
<stop offset="0.2312" stop-color="#FAFAFA"/>
<stop offset="0.5045" stop-color="#F4F4F4"/>
<stop offset="0.8767" stop-color="#E2E2E2"/>
<stop offset="1" stop-color="#DBDBDB"/>
</radialGradient>
<radialGradient id="paint47_radial_948_3066" cx="0" cy="0" r="1" gradientUnits="userSpaceOnUse" gradientTransform="translate(632.542 395.322) scale(748.364 818.523)">
<stop offset="0.2312" stop-color="#FAFAFA"/>
<stop offset="0.5045" stop-color="#F4F4F4"/>
<stop offset="0.8767" stop-color="#E2E2E2"/>
<stop offset="1" stop-color="#DBDBDB"/>
</radialGradient>
<radialGradient id="paint48_radial_948_3066" cx="0" cy="0" r="1" gradientUnits="userSpaceOnUse" gradientTransform="translate(632.542 395.321) scale(748.362 818.521)">
<stop offset="0.2312" stop-color="#FAFAFA"/>
<stop offset="0.5045" stop-color="#F4F4F4"/>
<stop offset="0.8767" stop-color="#E2E2E2"/>
<stop offset="1" stop-color="#DBDBDB"/>
</radialGradient>
<radialGradient id="paint49_radial_948_3066" cx="0" cy="0" r="1" gradientUnits="userSpaceOnUse" gradientTransform="translate(632.542 395.321) scale(748.36 818.519)">
<stop offset="0.2312" stop-color="#FAFAFA"/>
<stop offset="0.5045" stop-color="#F4F4F4"/>
<stop offset="0.8767" stop-color="#E2E2E2"/>
<stop offset="1" stop-color="#DBDBDB"/>
</radialGradient>
<radialGradient id="paint50_radial_948_3066" cx="0" cy="0" r="1" gradientUnits="userSpaceOnUse" gradientTransform="translate(632.543 395.321) scale(748.365 818.524)">
<stop offset="0.2312" stop-color="#FAFAFA"/>
<stop offset="0.5045" stop-color="#F4F4F4"/>
<stop offset="0.8767" stop-color="#E2E2E2"/>
<stop offset="1" stop-color="#DBDBDB"/>
</radialGradient>
<radialGradient id="paint51_radial_948_3066" cx="0" cy="0" r="1" gradientUnits="userSpaceOnUse" gradientTransform="translate(632.543 395.322) scale(748.361 818.519)">
<stop offset="0.2312" stop-color="#FAFAFA"/>
<stop offset="0.5045" stop-color="#F4F4F4"/>
<stop offset="0.8767" stop-color="#E2E2E2"/>
<stop offset="1" stop-color="#DBDBDB"/>
</radialGradient>
<radialGradient id="paint52_radial_948_3066" cx="0" cy="0" r="1" gradientUnits="userSpaceOnUse" gradientTransform="translate(632.543 395.323) scale(748.361 818.52)">
<stop offset="0.2312" stop-color="#FAFAFA"/>
<stop offset="0.5045" stop-color="#F4F4F4"/>
<stop offset="0.8767" stop-color="#E2E2E2"/>
<stop offset="1" stop-color="#DBDBDB"/>
</radialGradient>
<radialGradient id="paint53_radial_948_3066" cx="0" cy="0" r="1" gradientUnits="userSpaceOnUse" gradientTransform="translate(632.544 395.323) scale(748.361 818.52)">
<stop offset="0.2312" stop-color="#FAFAFA"/>
<stop offset="0.5045" stop-color="#F4F4F4"/>
<stop offset="0.8767" stop-color="#E2E2E2"/>
<stop offset="1" stop-color="#DBDBDB"/>
</radialGradient>
<radialGradient id="paint54_radial_948_3066" cx="0" cy="0" r="1" gradientUnits="userSpaceOnUse" gradientTransform="translate(632.543 395.321) scale(748.393 818.555)">
<stop offset="0.2312" stop-color="#FAFAFA"/>
<stop offset="0.5045" stop-color="#F4F4F4"/>
<stop offset="0.8767" stop-color="#E2E2E2"/>
<stop offset="1" stop-color="#DBDBDB"/>
</radialGradient>
<radialGradient id="paint55_radial_948_3066" cx="0" cy="0" r="1" gradientUnits="userSpaceOnUse" gradientTransform="translate(632.543 395.321) scale(748.36 818.519)">
<stop offset="0.2312" stop-color="#FAFAFA"/>
<stop offset="0.5045" stop-color="#F4F4F4"/>
<stop offset="0.8767" stop-color="#E2E2E2"/>
<stop offset="1" stop-color="#DBDBDB"/>
</radialGradient>
<radialGradient id="paint56_radial_948_3066" cx="0" cy="0" r="1" gradientUnits="userSpaceOnUse" gradientTransform="translate(632.543 395.102) scale(748.464 818.633)">
<stop offset="0.2312" stop-color="#FAFAFA"/>
<stop offset="0.5045" stop-color="#F4F4F4"/>
<stop offset="0.8767" stop-color="#E2E2E2"/>
<stop offset="1" stop-color="#DBDBDB"/>
</radialGradient>
<radialGradient id="paint57_radial_948_3066" cx="0" cy="0" r="1" gradientUnits="userSpaceOnUse" gradientTransform="translate(632.543 395.323) scale(748.365 818.524)">
<stop offset="0.2312" stop-color="#FAFAFA"/>
<stop offset="0.5045" stop-color="#F4F4F4"/>
<stop offset="0.8767" stop-color="#E2E2E2"/>
<stop offset="1" stop-color="#DBDBDB"/>
</radialGradient>
<radialGradient id="paint58_radial_948_3066" cx="0" cy="0" r="1" gradientUnits="userSpaceOnUse" gradientTransform="translate(632.545 395.321) scale(748.36 818.519)">
<stop offset="0.2312" stop-color="#FAFAFA"/>
<stop offset="0.5045" stop-color="#F4F4F4"/>
<stop offset="0.8767" stop-color="#E2E2E2"/>
<stop offset="1" stop-color="#DBDBDB"/>
</radialGradient>
<radialGradient id="paint59_radial_948_3066" cx="0" cy="0" r="1" gradientUnits="userSpaceOnUse" gradientTransform="translate(632.543 396.294) scale(747.843 817.953)">
<stop offset="0.2312" stop-color="#FAFAFA"/>
<stop offset="0.5045" stop-color="#F4F4F4"/>
<stop offset="0.8767" stop-color="#E2E2E2"/>
<stop offset="1" stop-color="#DBDBDB"/>
</radialGradient>
<radialGradient id="paint60_radial_948_3066" cx="0" cy="0" r="1" gradientUnits="userSpaceOnUse" gradientTransform="translate(632.543 395.322) scale(748.363 818.522)">
<stop offset="0.2312" stop-color="#FAFAFA"/>
<stop offset="0.5045" stop-color="#F4F4F4"/>
<stop offset="0.8767" stop-color="#E2E2E2"/>
<stop offset="1" stop-color="#DBDBDB"/>
</radialGradient>
<radialGradient id="paint61_radial_948_3066" cx="0" cy="0" r="1" gradientUnits="userSpaceOnUse" gradientTransform="translate(632.543 395.321) scale(748.362 818.521)">
<stop offset="0.2312" stop-color="#FAFAFA"/>
<stop offset="0.5045" stop-color="#F4F4F4"/>
<stop offset="0.8767" stop-color="#E2E2E2"/>
<stop offset="1" stop-color="#DBDBDB"/>
</radialGradient>
<radialGradient id="paint62_radial_948_3066" cx="0" cy="0" r="1" gradientUnits="userSpaceOnUse" gradientTransform="translate(632.543 395.322) scale(748.359 818.518)">
<stop offset="0.2312" stop-color="#FAFAFA"/>
<stop offset="0.5045" stop-color="#F4F4F4"/>
<stop offset="0.8767" stop-color="#E2E2E2"/>
<stop offset="1" stop-color="#DBDBDB"/>
</radialGradient>
<radialGradient id="paint63_radial_948_3066" cx="0" cy="0" r="1" gradientUnits="userSpaceOnUse" gradientTransform="translate(632.545 395.322) scale(748.362 818.521)">
<stop offset="0.2312" stop-color="#FAFAFA"/>
<stop offset="0.5045" stop-color="#F4F4F4"/>
<stop offset="0.8767" stop-color="#E2E2E2"/>
<stop offset="1" stop-color="#DBDBDB"/>
</radialGradient>
<radialGradient id="paint64_radial_948_3066" cx="0" cy="0" r="1" gradientUnits="userSpaceOnUse" gradientTransform="translate(632.542 395.322) scale(748.362 818.521)">
<stop offset="0.2312" stop-color="#FAFAFA"/>
<stop offset="0.5045" stop-color="#F4F4F4"/>
<stop offset="0.8767" stop-color="#E2E2E2"/>
<stop offset="1" stop-color="#DBDBDB"/>
</radialGradient>
<radialGradient id="paint65_radial_948_3066" cx="0" cy="0" r="1" gradientUnits="userSpaceOnUse" gradientTransform="translate(632.544 395.32) scale(748.361 818.52)">
<stop offset="0.2312" stop-color="#FAFAFA"/>
<stop offset="0.5045" stop-color="#F4F4F4"/>
<stop offset="0.8767" stop-color="#E2E2E2"/>
<stop offset="1" stop-color="#DBDBDB"/>
</radialGradient>
<radialGradient id="paint66_radial_948_3066" cx="0" cy="0" r="1" gradientUnits="userSpaceOnUse" gradientTransform="translate(632.543 395.321) scale(748.362 818.521)">
<stop offset="0.2312" stop-color="#FAFAFA"/>
<stop offset="0.5045" stop-color="#F4F4F4"/>
<stop offset="0.8767" stop-color="#E2E2E2"/>
<stop offset="1" stop-color="#DBDBDB"/>
</radialGradient>
<radialGradient id="paint67_radial_948_3066" cx="0" cy="0" r="1" gradientUnits="userSpaceOnUse" gradientTransform="translate(632.542 395.322) scale(748.364 818.523)">
<stop offset="0.2312" stop-color="#FAFAFA"/>
<stop offset="0.5045" stop-color="#F4F4F4"/>
<stop offset="0.8767" stop-color="#E2E2E2"/>
<stop offset="1" stop-color="#DBDBDB"/>
</radialGradient>
<radialGradient id="paint68_radial_948_3066" cx="0" cy="0" r="1" gradientUnits="userSpaceOnUse" gradientTransform="translate(632.543 395.323) scale(748.362 818.521)">
<stop offset="0.2312" stop-color="#FAFAFA"/>
<stop offset="0.5045" stop-color="#F4F4F4"/>
<stop offset="0.8767" stop-color="#E2E2E2"/>
<stop offset="1" stop-color="#DBDBDB"/>
</radialGradient>
<radialGradient id="paint69_radial_948_3066" cx="0" cy="0" r="1" gradientUnits="userSpaceOnUse" gradientTransform="translate(632.542 395.322) scale(748.363 818.521)">
<stop offset="0.2312" stop-color="#FAFAFA"/>
<stop offset="0.5045" stop-color="#F4F4F4"/>
<stop offset="0.8767" stop-color="#E2E2E2"/>
<stop offset="1" stop-color="#DBDBDB"/>
</radialGradient>
<radialGradient id="paint70_radial_948_3066" cx="0" cy="0" r="1" gradientUnits="userSpaceOnUse" gradientTransform="translate(632.544 395.322) scale(748.361 818.52)">
<stop offset="0.2312" stop-color="#FAFAFA"/>
<stop offset="0.5045" stop-color="#F4F4F4"/>
<stop offset="0.8767" stop-color="#E2E2E2"/>
<stop offset="1" stop-color="#DBDBDB"/>
</radialGradient>
<radialGradient id="paint71_radial_948_3066" cx="0" cy="0" r="1" gradientUnits="userSpaceOnUse" gradientTransform="translate(632.542 395.32) scale(748.362 818.521)">
<stop offset="0.2312" stop-color="#FAFAFA"/>
<stop offset="0.5045" stop-color="#F4F4F4"/>
<stop offset="0.8767" stop-color="#E2E2E2"/>
<stop offset="1" stop-color="#DBDBDB"/>
</radialGradient>
<radialGradient id="paint72_radial_948_3066" cx="0" cy="0" r="1" gradientUnits="userSpaceOnUse" gradientTransform="translate(632.544 395.322) scale(748.363 818.522)">
<stop offset="0.2312" stop-color="#FAFAFA"/>
<stop offset="0.5045" stop-color="#F4F4F4"/>
<stop offset="0.8767" stop-color="#E2E2E2"/>
<stop offset="1" stop-color="#DBDBDB"/>
</radialGradient>
<radialGradient id="paint73_radial_948_3066" cx="0" cy="0" r="1" gradientUnits="userSpaceOnUse" gradientTransform="translate(632.544 395.32) scale(748.361 818.52)">
<stop offset="0.2312" stop-color="#FAFAFA"/>
<stop offset="0.5045" stop-color="#F4F4F4"/>
<stop offset="0.8767" stop-color="#E2E2E2"/>
<stop offset="1" stop-color="#DBDBDB"/>
</radialGradient>
<radialGradient id="paint74_radial_948_3066" cx="0" cy="0" r="1" gradientUnits="userSpaceOnUse" gradientTransform="translate(632.543 395.322) scale(748.36 818.519)">
<stop offset="0.2312" stop-color="#FAFAFA"/>
<stop offset="0.5045" stop-color="#F4F4F4"/>
<stop offset="0.8767" stop-color="#E2E2E2"/>
<stop offset="1" stop-color="#DBDBDB"/>
</radialGradient>
<radialGradient id="paint75_radial_948_3066" cx="0" cy="0" r="1" gradientUnits="userSpaceOnUse" gradientTransform="translate(632.543 395.322) scale(748.363 818.522)">
<stop offset="0.2312" stop-color="#FAFAFA"/>
<stop offset="0.5045" stop-color="#F4F4F4"/>
<stop offset="0.8767" stop-color="#E2E2E2"/>
<stop offset="1" stop-color="#DBDBDB"/>
</radialGradient>
<radialGradient id="paint76_radial_948_3066" cx="0" cy="0" r="1" gradientUnits="userSpaceOnUse" gradientTransform="translate(632.544 395.322) scale(748.363 818.522)">
<stop offset="0.2312" stop-color="#FAFAFA"/>
<stop offset="0.5045" stop-color="#F4F4F4"/>
<stop offset="0.8767" stop-color="#E2E2E2"/>
<stop offset="1" stop-color="#DBDBDB"/>
</radialGradient>
</defs>
</svg>
