<svg width="17" height="17" viewBox="0 0 17 17" fill="none" xmlns="http://www.w3.org/2000/svg">
<g clip-path="url(#clip0_1145_989)">
<path d="M8.44043 7.875C7.69451 7.875 6.97914 7.57868 6.45169 7.05124C5.92425 6.52379 5.62793 5.80842 5.62793 5.0625C5.62793 4.31658 5.92425 3.60121 6.45169 3.07376C6.97914 2.54632 7.69451 2.25 8.44043 2.25C9.18635 2.25 9.90172 2.54632 10.4292 3.07376C10.9566 3.60121 11.2529 4.31658 11.2529 5.0625C11.2529 5.80842 10.9566 6.52379 10.4292 7.05124C9.90172 7.57868 9.18635 7.875 8.44043 7.875ZM8.44043 3.375C7.50668 3.375 6.75293 4.12875 6.75293 5.0625C6.75293 5.99625 7.50668 6.75 8.44043 6.75C9.37418 6.75 10.1279 5.99625 10.1279 5.0625C10.1279 4.12875 9.37418 3.375 8.44043 3.375Z" fill="black"/>
<path d="M15.1904 12.375C14.8754 12.375 14.6279 12.1275 14.6279 11.8125C14.6279 11.4975 14.8754 11.25 15.1904 11.25C15.5054 11.25 15.7529 11.0025 15.7529 10.6875C15.7529 9.94158 15.4566 9.22621 14.9292 8.69876C14.4017 8.17132 13.6864 7.875 12.9404 7.875H11.8154C11.5004 7.875 11.2529 7.6275 11.2529 7.3125C11.2529 6.9975 11.5004 6.75 11.8154 6.75C12.7492 6.75 13.5029 5.99625 13.5029 5.0625C13.5029 4.12875 12.7492 3.375 11.8154 3.375C11.5004 3.375 11.2529 3.1275 11.2529 2.8125C11.2529 2.4975 11.5004 2.25 11.8154 2.25C12.5614 2.25 13.2767 2.54632 13.8042 3.07376C14.3316 3.60121 14.6279 4.31658 14.6279 5.0625C14.6279 5.76 14.3804 6.39 13.9529 6.885C15.6292 7.335 16.8779 8.865 16.8779 10.6875C16.8779 11.6212 16.1242 12.375 15.1904 12.375ZM1.69043 12.375C0.75668 12.375 0.00292969 11.6212 0.00292969 10.6875C0.00292969 8.865 1.24043 7.335 2.92793 6.885C2.51168 6.39 2.25293 5.76 2.25293 5.0625C2.25293 4.31658 2.54925 3.60121 3.07669 3.07376C3.60414 2.54632 4.31951 2.25 5.06543 2.25C5.38043 2.25 5.62793 2.4975 5.62793 2.8125C5.62793 3.1275 5.38043 3.375 5.06543 3.375C4.13168 3.375 3.37793 4.12875 3.37793 5.0625C3.37793 5.99625 4.13168 6.75 5.06543 6.75C5.38043 6.75 5.62793 6.9975 5.62793 7.3125C5.62793 7.6275 5.38043 7.875 5.06543 7.875H3.94043C3.19451 7.875 2.47914 8.17132 1.95169 8.69876C1.42425 9.22621 1.12793 9.94158 1.12793 10.6875C1.12793 11.0025 1.37543 11.25 1.69043 11.25C2.00543 11.25 2.25293 11.4975 2.25293 11.8125C2.25293 12.1275 2.00543 12.375 1.69043 12.375ZM11.8154 15.75H5.06543C4.13168 15.75 3.37793 14.9962 3.37793 14.0625V12.9375C3.37793 10.7663 5.14418 9 7.31543 9H9.56543C11.7367 9 13.5029 10.7663 13.5029 12.9375V14.0625C13.5029 14.9962 12.7492 15.75 11.8154 15.75ZM7.31543 10.125C6.56951 10.125 5.85414 10.4213 5.32669 10.9488C4.79925 11.4762 4.50293 12.1916 4.50293 12.9375V14.0625C4.50293 14.3775 4.75043 14.625 5.06543 14.625H11.8154C12.1304 14.625 12.3779 14.3775 12.3779 14.0625V12.9375C12.3779 12.1916 12.0816 11.4762 11.5542 10.9488C11.0267 10.4213 10.3114 10.125 9.56543 10.125H7.31543Z" fill="black"/>
</g>
<defs>
<clipPath id="clip0_1145_989">
<rect width="16.88" height="16.88" fill="white"/>
</clipPath>
</defs>
</svg>
