<svg width="18" height="18" viewBox="0 0 18 18" fill="none" xmlns="http://www.w3.org/2000/svg">
<path d="M5.25 11.25V9.75H8.25V11.25H5.25ZM4.5 12.75H10.0125C9.8475 13.2225 9.75 13.725 9.75 14.25H3V9C3 8.60218 3.15804 8.22064 3.43934 7.93934C3.72064 7.65804 4.10218 7.5 4.5 7.5H5.25V3H12.75V7.5H13.5C13.8978 7.5 14.2794 7.65804 14.5607 7.93934C14.842 8.22064 15 8.60218 15 9V9.8175C14.7525 9.78 14.505 9.75 14.25 9.75C13.995 9.75 13.7475 9.78 13.5 9.8175V9H4.5V12.75ZM6.75 7.5H11.25V4.5H6.75V7.5ZM16.005 11.88L13.3125 14.5725L12.12 13.38L11.25 14.25L13.3125 16.5L16.875 12.9375L16.005 11.88Z" fill="black"/>
</svg>
