<svg width="17" height="17" viewBox="0 0 17 17" fill="none" xmlns="http://www.w3.org/2000/svg">
<path d="M1.05469 11.6047H15.8247V12.6597H1.05469V11.6047ZM1.05469 13.7147H15.8247V14.7697H1.05469V13.7147ZM12.6597 5.27473C12.451 5.27473 12.2471 5.3366 12.0736 5.45253C11.9001 5.56845 11.7648 5.73322 11.685 5.926C11.6051 6.11877 11.5843 6.3309 11.625 6.53555C11.6657 6.7402 11.7661 6.92818 11.9137 7.07573C12.0612 7.22327 12.2492 7.32375 12.4539 7.36446C12.6585 7.40516 12.8706 7.38427 13.0634 7.30442C13.2562 7.22457 13.421 7.08935 13.5369 6.91585C13.6528 6.74236 13.7147 6.53839 13.7147 6.32973C13.7147 6.04992 13.6035 5.78158 13.4057 5.58373C13.2078 5.38588 12.9395 5.27473 12.6597 5.27473ZM8.43969 8.43973C8.02237 8.43973 7.61442 8.31598 7.26743 8.08413C6.92045 7.85228 6.65 7.52274 6.4903 7.13719C6.3306 6.75164 6.28882 6.32739 6.37023 5.91809C6.45164 5.50879 6.6526 5.13282 6.94769 4.83773C7.24278 4.54264 7.61875 4.34169 8.02805 4.26027C8.43735 4.17886 8.8616 4.22064 9.24715 4.38034C9.6327 4.54004 9.96224 4.81049 10.1941 5.15747C10.4259 5.50446 10.5497 5.91241 10.5497 6.32973C10.549 6.88912 10.3265 7.4254 9.93091 7.82095C9.53536 8.2165 8.99908 8.43903 8.43969 8.43973ZM8.43969 5.27473C8.23103 5.27473 8.02705 5.3366 7.85356 5.45253C7.68007 5.56845 7.54484 5.73322 7.46499 5.926C7.38514 6.11877 7.36425 6.3309 7.40496 6.53555C7.44567 6.7402 7.54615 6.92818 7.69369 7.07573C7.84123 7.22327 8.02922 7.32375 8.23387 7.36446C8.43852 7.40516 8.65064 7.38427 8.84342 7.30442C9.03619 7.22457 9.20096 7.08935 9.31689 6.91585C9.43281 6.74236 9.49469 6.53839 9.49469 6.32973C9.49469 6.04992 9.38354 5.78158 9.18568 5.58373C8.98783 5.38588 8.71949 5.27473 8.43969 5.27473ZM4.21969 5.27473C4.01103 5.27473 3.80705 5.3366 3.63356 5.45253C3.46007 5.56845 3.32484 5.73322 3.24499 5.926C3.16514 6.11877 3.14425 6.3309 3.18496 6.53555C3.22567 6.7402 3.32615 6.92818 3.47369 7.07573C3.62123 7.22327 3.80922 7.32375 4.01387 7.36446C4.21852 7.40516 4.43064 7.38427 4.62342 7.30442C4.81619 7.22457 4.98096 7.08935 5.09689 6.91585C5.21281 6.74236 5.27469 6.53839 5.27469 6.32973C5.27469 6.04992 5.16354 5.78158 4.96568 5.58373C4.76783 5.38588 4.49949 5.27473 4.21969 5.27473Z" fill="black"/>
<path d="M14.7697 10.5499H2.10969C1.8301 10.5492 1.56216 10.4378 1.36446 10.2401C1.16676 10.0424 1.05538 9.77445 1.05469 9.49486V3.16486C1.05538 2.88527 1.16676 2.61733 1.36446 2.41963C1.56216 2.22193 1.8301 2.11056 2.10969 2.10986H14.7697C15.0493 2.11056 15.3172 2.22193 15.5149 2.41963C15.7126 2.61733 15.824 2.88527 15.8247 3.16486V9.49486C15.8243 9.77454 15.713 10.0426 15.5152 10.2404C15.3175 10.4382 15.0494 10.5494 14.7697 10.5499ZM14.7697 3.16486H2.10969V9.49486H14.7697V3.16486Z" fill="black"/>
</svg>
